<?xml version="1.0" encoding="UTF-8"?>
<svg xmlns="http://www.w3.org/2000/svg" xmlns:xlink="http://www.w3.org/1999/xlink" width="150px" height="150px" viewBox="0 0 150 119" version="1.1">
<defs>
<filter id="alpha" filterUnits="objectBoundingBox" x="0%" y="0%" width="100%" height="100%">
  <feColorMatrix type="matrix" in="SourceGraphic" values="0 0 0 0 1 0 0 0 0 1 0 0 0 0 1 0 0 0 1 0"/>
</filter>
<mask id="mask0">
  <g filter="url(#alpha)">
<rect x="0" y="0" width="150" height="119" style="fill:rgb(0%,0%,0%);fill-opacity:0.4;stroke:none;"/>
  </g>
</mask>
<clipPath id="clip1">
  <rect x="0" y="0" width="150" height="119"/>
</clipPath>
<g id="surface5" clip-path="url(#clip1)">
<path style=" stroke:none;fill-rule:nonzero;fill:rgb(99.607843%,80%,52.54902%);fill-opacity:1;" d="M 133.675781 88.824219 C 131.277344 94.234375 127.945312 98.519531 123.964844 101.878906 C 119.367188 105.761719 113.898438 108.414062 107.984375 110.136719 C 88.742188 115.746094 64.792969 111.546875 50.789062 108.0625 C 47.949219 107.359375 45.515625 106.679688 43.617188 106.121094 C 40.410156 105.175781 37.371094 103.730469 34.632812 101.820312 C 34.617188 101.808594 34.605469 101.800781 34.589844 101.789062 C 15.820312 88.671875 7.847656 69.921875 14.089844 52.164062 C 14.1875 51.886719 32.585938 -4.511719 76.21875 14.117188 C 95.371094 22.292969 88.328125 29.242188 109.558594 37.929688 C 119.484375 41.996094 132.621094 49.242188 136.222656 66.339844 C 137.507812 72.4375 137.074219 81.171875 133.675781 88.824219 Z M 133.675781 88.824219 "/>
</g>
<mask id="mask1">
  <g filter="url(#alpha)">
<rect x="0" y="0" width="150" height="119" style="fill:rgb(0%,0%,0%);fill-opacity:0.301961;stroke:none;"/>
  </g>
</mask>
<clipPath id="clip2">
  <rect x="0" y="0" width="150" height="119"/>
</clipPath>
<g id="surface8" clip-path="url(#clip2)">
<path style=" stroke:none;fill-rule:nonzero;fill:rgb(99.607843%,80%,52.54902%);fill-opacity:1;" d="M 83.8125 52.78125 C 84.777344 53.429688 85.824219 53.90625 86.914062 54.207031 L 87.3125 56.964844 L 89.222656 57.039062 L 91.136719 57.113281 L 91.75 54.390625 C 92.855469 54.179688 93.9375 53.785156 94.949219 53.214844 L 97.1875 54.882812 L 98.59375 53.589844 L 99.996094 52.292969 L 98.5 49.941406 C 99.152344 48.980469 99.628906 47.9375 99.925781 46.851562 L 102.695312 46.453125 L 102.769531 44.550781 L 102.84375 42.644531 L 100.117188 42.035156 C 99.902344 40.929688 99.507812 39.851562 98.933594 38.84375 L 100.609375 36.613281 L 99.308594 35.214844 L 98.011719 33.816406 L 95.648438 35.304688 C 94.683594 34.65625 93.636719 34.183594 92.546875 33.882812 L 92.148438 31.125 L 90.238281 31.050781 L 88.324219 30.976562 L 87.710938 33.695312 C 86.605469 33.910156 85.523438 34.304688 84.511719 34.875 L 82.273438 33.207031 L 80.867188 34.5 L 79.464844 35.792969 L 80.960938 38.148438 C 80.308594 39.109375 79.832031 40.152344 79.535156 41.238281 L 76.765625 41.636719 L 76.691406 43.539062 L 76.617188 45.445312 L 79.34375 46.054688 C 79.558594 47.160156 79.953125 48.238281 80.527344 49.246094 L 78.851562 51.476562 L 80.152344 52.875 L 81.449219 54.273438 Z M 84.859375 38.796875 C 87.765625 36.117188 92.304688 36.292969 94.996094 39.191406 C 97.6875 42.085938 97.511719 46.609375 94.601562 49.292969 C 91.695312 51.972656 87.15625 51.796875 84.464844 48.898438 C 81.773438 46 81.949219 41.480469 84.859375 38.796875 Z M 84.859375 38.796875 "/>
</g>
<mask id="mask2">
  <g filter="url(#alpha)">
<rect x="0" y="0" width="150" height="119" style="fill:rgb(0%,0%,0%);fill-opacity:0.501961;stroke:none;"/>
  </g>
</mask>
<clipPath id="clip3">
  <rect x="0" y="0" width="150" height="119"/>
</clipPath>
<g id="surface11" clip-path="url(#clip3)">
<path style=" stroke:none;fill-rule:nonzero;fill:rgb(99.607843%,80%,52.54902%);fill-opacity:1;" d="M 68.636719 75.828125 C 67.679688 75.296875 66.65625 74.933594 65.609375 74.742188 L 65.011719 72.183594 L 63.210938 72.265625 L 61.410156 72.351562 L 61.054688 74.953125 C 60.03125 75.242188 59.046875 75.699219 58.144531 76.316406 L 55.90625 74.929688 L 53.476562 77.585938 L 55.074219 79.679688 C 54.539062 80.632812 54.175781 81.652344 53.984375 82.695312 L 51.414062 83.289062 L 51.5 85.085938 L 51.582031 86.878906 L 54.195312 87.234375 C 54.488281 88.253906 54.945312 89.234375 55.566406 90.132812 L 54.171875 92.363281 L 55.503906 93.574219 L 56.839844 94.785156 L 58.9375 93.195312 C 59.894531 93.726562 60.917969 94.085938 61.964844 94.28125 L 62.5625 96.839844 L 64.363281 96.753906 L 66.164062 96.671875 L 66.519531 94.066406 C 67.542969 93.777344 68.527344 93.320312 69.429688 92.703125 L 71.671875 94.089844 L 72.882812 92.761719 L 74.097656 91.433594 L 72.5 89.34375 C 73.035156 88.390625 73.398438 87.371094 73.59375 86.328125 L 76.160156 85.730469 L 76.074219 83.9375 L 75.992188 82.140625 L 73.378906 81.789062 C 73.089844 80.765625 72.628906 79.785156 72.011719 78.886719 L 73.402344 76.65625 L 72.070312 75.445312 L 70.738281 74.238281 Z M 68.789062 89.046875 C 66.273438 91.800781 61.996094 92 59.234375 89.492188 C 56.472656 86.988281 56.273438 82.726562 58.785156 79.972656 C 61.300781 77.222656 65.578125 77.019531 68.339844 79.527344 C 71.101562 82.03125 71.304688 86.296875 68.789062 89.046875 Z M 68.789062 89.046875 "/>
</g>
<mask id="mask3">
  <g filter="url(#alpha)">
<rect x="0" y="0" width="150" height="119" style="fill:rgb(0%,0%,0%);fill-opacity:0.501961;stroke:none;"/>
  </g>
</mask>
<clipPath id="clip4">
  <rect x="0" y="0" width="150" height="119"/>
</clipPath>
<g id="surface14" clip-path="url(#clip4)">
<path style=" stroke:none;fill-rule:nonzero;fill:rgb(99.607843%,80%,52.54902%);fill-opacity:1;" d="M 91.335938 92.828125 C 90.921875 92.28125 90.433594 91.816406 89.882812 91.441406 L 90.195312 89.828125 L 89.144531 89.417969 L 88.09375 89.011719 L 87.226562 90.40625 C 86.570312 90.3125 85.890625 90.324219 85.21875 90.449219 L 84.292969 89.089844 L 83.261719 89.539062 L 82.226562 89.992188 L 82.605469 91.589844 C 82.058594 92 81.589844 92.488281 81.214844 93.035156 L 79.59375 92.726562 L 79.183594 93.769531 L 78.773438 94.816406 L 80.175781 95.683594 C 80.082031 96.339844 80.09375 97.015625 80.21875 97.683594 L 78.851562 98.605469 L 79.304688 99.636719 L 79.757812 100.664062 L 81.363281 100.289062 C 81.773438 100.832031 82.265625 101.300781 82.8125 101.675781 L 82.503906 103.289062 L 83.550781 103.695312 L 84.601562 104.105469 L 85.46875 102.707031 C 86.128906 102.800781 86.808594 102.792969 87.480469 102.667969 L 88.40625 104.027344 L 89.4375 103.574219 L 90.46875 103.125 L 90.089844 101.527344 C 90.640625 101.117188 91.105469 100.625 91.484375 100.082031 L 93.101562 100.390625 L 93.921875 98.296875 L 92.519531 97.433594 C 92.617188 96.777344 92.605469 96.101562 92.480469 95.429688 L 93.84375 94.507812 L 92.9375 92.453125 Z M 88.046875 100.417969 C 85.90625 101.351562 83.414062 100.378906 82.476562 98.25 C 81.539062 96.117188 82.511719 93.632812 84.652344 92.699219 C 86.789062 91.765625 89.285156 92.734375 90.222656 94.867188 C 91.160156 96.996094 90.183594 99.480469 88.046875 100.417969 Z M 88.046875 100.417969 "/>
</g>
<mask id="mask4">
  <g filter="url(#alpha)">
<rect x="0" y="0" width="150" height="119" style="fill:rgb(0%,0%,0%);fill-opacity:0.501961;stroke:none;"/>
  </g>
</mask>
<clipPath id="clip5">
  <rect x="0" y="0" width="150" height="119"/>
</clipPath>
<g id="surface17" clip-path="url(#clip5)">
<path style=" stroke:none;fill-rule:nonzero;fill:rgb(100%,100%,100%);fill-opacity:1;" d="M 37.214844 43.660156 C 37.234375 43.78125 37.179688 43.894531 37.082031 43.960938 C 37.050781 43.980469 37.007812 44 36.964844 44.003906 C 36.921875 44.011719 36.878906 44.011719 36.839844 44 C 36.726562 43.972656 36.636719 43.878906 36.617188 43.757812 C 36.589844 43.59375 36.703125 43.4375 36.867188 43.410156 C 37.03125 43.382812 37.1875 43.496094 37.214844 43.660156 Z M 37.214844 43.660156 "/>
<path style=" stroke:none;fill-rule:nonzero;fill:rgb(100%,100%,100%);fill-opacity:1;" d="M 38.136719 43.503906 C 38.15625 43.625 38.101562 43.742188 38.007812 43.804688 C 37.972656 43.828125 37.933594 43.84375 37.886719 43.851562 C 37.84375 43.859375 37.800781 43.855469 37.761719 43.847656 C 37.648438 43.816406 37.5625 43.726562 37.539062 43.605469 C 37.511719 43.441406 37.625 43.285156 37.789062 43.257812 C 37.953125 43.230469 38.109375 43.339844 38.136719 43.503906 Z M 38.136719 43.503906 "/>
<path style=" stroke:none;fill-rule:nonzero;fill:rgb(100%,100%,100%);fill-opacity:1;" d="M 39.058594 43.351562 C 39.082031 43.472656 39.027344 43.589844 38.929688 43.652344 C 38.894531 43.675781 38.855469 43.691406 38.8125 43.699219 C 38.769531 43.707031 38.726562 43.703125 38.683594 43.691406 C 38.574219 43.664062 38.484375 43.570312 38.464844 43.449219 C 38.4375 43.285156 38.546875 43.132812 38.710938 43.105469 C 38.878906 43.078125 39.03125 43.1875 39.058594 43.351562 Z M 39.058594 43.351562 "/>
</g>
<mask id="mask5">
  <g filter="url(#alpha)">
<rect x="0" y="0" width="150" height="119" style="fill:rgb(0%,0%,0%);fill-opacity:0.501961;stroke:none;"/>
  </g>
</mask>
<clipPath id="clip6">
  <rect x="0" y="0" width="150" height="119"/>
</clipPath>
<g id="surface20" clip-path="url(#clip6)">
<path style=" stroke:none;fill-rule:nonzero;fill:rgb(100%,100%,100%);fill-opacity:1;" d="M 112.519531 42.429688 C 112.523438 42.550781 112.597656 42.65625 112.703125 42.703125 C 112.742188 42.71875 112.785156 42.726562 112.828125 42.726562 C 112.871094 42.726562 112.914062 42.714844 112.949219 42.699219 C 113.054688 42.648438 113.128906 42.542969 113.125 42.417969 C 113.121094 42.253906 112.984375 42.121094 112.816406 42.125 C 112.652344 42.125 112.519531 42.261719 112.519531 42.429688 Z M 112.519531 42.429688 "/>
<path style=" stroke:none;fill-rule:nonzero;fill:rgb(100%,100%,100%);fill-opacity:1;" d="M 111.585938 42.445312 C 111.585938 42.566406 111.660156 42.671875 111.765625 42.714844 C 111.804688 42.734375 111.847656 42.742188 111.890625 42.742188 C 111.9375 42.742188 111.976562 42.730469 112.015625 42.710938 C 112.121094 42.664062 112.191406 42.558594 112.1875 42.433594 C 112.1875 42.269531 112.050781 42.136719 111.882812 42.136719 C 111.714844 42.140625 111.582031 42.277344 111.585938 42.445312 Z M 111.585938 42.445312 "/>
<path style=" stroke:none;fill-rule:nonzero;fill:rgb(100%,100%,100%);fill-opacity:1;" d="M 110.648438 42.460938 C 110.652344 42.582031 110.726562 42.6875 110.832031 42.730469 C 110.871094 42.75 110.910156 42.757812 110.957031 42.757812 C 111 42.753906 111.042969 42.746094 111.078125 42.726562 C 111.183594 42.679688 111.253906 42.574219 111.253906 42.449219 C 111.25 42.285156 111.113281 42.152344 110.945312 42.152344 C 110.777344 42.15625 110.644531 42.292969 110.648438 42.460938 Z M 110.648438 42.460938 "/>
</g>
<mask id="mask6">
  <g filter="url(#alpha)">
<rect x="0" y="0" width="150" height="119" style="fill:rgb(0%,0%,0%);fill-opacity:0.101961;stroke:none;"/>
  </g>
</mask>
<clipPath id="clip7">
  <rect x="0" y="0" width="150" height="119"/>
</clipPath>
<g id="surface23" clip-path="url(#clip7)">
<path style=" stroke:none;fill-rule:nonzero;fill:rgb(100%,100%,100%);fill-opacity:1;" d="M 61.066406 56.480469 C 58.589844 54.015625 54.582031 54.015625 52.109375 56.480469 C 49.632812 58.945312 49.632812 62.941406 52.109375 65.40625 C 54.582031 67.871094 58.589844 67.871094 61.066406 65.40625 C 63.539062 62.941406 63.539062 58.945312 61.066406 56.480469 Z M 61.066406 56.480469 "/>
</g>
</defs>
<g id="surface1">
<path style=" stroke:none;fill-rule:nonzero;fill:rgb(100%,100%,100%);fill-opacity:1;" d="M 0 0.00390625 L 150 0.00390625 L 150 118.996094 L 0 118.996094 Z M 0 0.00390625 "/>
<use xlink:href="#surface5" mask="url(#mask0)"/>
<use xlink:href="#surface8" mask="url(#mask1)"/>
<use xlink:href="#surface11" mask="url(#mask2)"/>
<use xlink:href="#surface14" mask="url(#mask3)"/>
<path style=" stroke:none;fill-rule:nonzero;fill:rgb(24.313725%,59.607843%,58.823529%);fill-opacity:1;" d="M 39.1875 46.136719 C 39.1875 46.136719 36.082031 41.023438 28.636719 42.347656 C 28.636719 42.347656 33.652344 49.757812 39.1875 46.136719 Z M 39.1875 46.136719 "/>
<path style=" stroke:none;fill-rule:nonzero;fill:rgb(50.196078%,76.862745%,64.313725%);fill-opacity:1;" d="M 44.035156 47.484375 C 44.035156 47.484375 43.109375 37.238281 30.582031 33.683594 C 30.582031 33.683594 32.71875 48.917969 44.035156 47.484375 Z M 44.035156 47.484375 "/>
<path style=" stroke:none;fill-rule:nonzero;fill:rgb(99.607843%,62.352941%,45.098039%);fill-opacity:1;" d="M 59.023438 46.105469 C 59.023438 46.105469 62.566406 45.242188 63.589844 46.570312 C 64.617188 47.898438 62.09375 51.554688 60.175781 51.839844 C 58.257812 52.125 59.023438 46.105469 59.023438 46.105469 Z M 59.023438 46.105469 "/>
<path style=" stroke:none;fill-rule:nonzero;fill:rgb(92.941176%,44.313725%,38.823529%);fill-opacity:1;" d="M 49.011719 95.007812 C 49.011719 95.007812 58.027344 90.644531 59.679688 84.484375 C 61.332031 78.324219 50.722656 77.535156 50.867188 77.535156 C 51.015625 77.539062 40.09375 80.421875 39.347656 82.179688 C 38.601562 83.9375 35.320312 91.265625 36.648438 91.273438 C 37.976562 91.277344 49.011719 95.007812 49.011719 95.007812 Z M 49.011719 95.007812 "/>
<path style=" stroke:none;fill-rule:nonzero;fill:rgb(81.568627%,96.470588%,98.823529%);fill-opacity:1;" d="M 56.988281 39.679688 C 56.984375 39.667969 56.980469 39.65625 56.976562 39.640625 C 56.875 39.199219 56.457031 38.902344 56.003906 38.949219 C 55.992188 38.949219 55.976562 38.953125 55.964844 38.953125 C 55.960938 38.953125 55.953125 38.953125 55.949219 38.957031 L 36.117188 42.253906 C 36.109375 42.253906 36.105469 42.253906 36.101562 42.253906 C 36.089844 42.257812 36.074219 42.261719 36.0625 42.265625 C 35.617188 42.367188 35.320312 42.78125 35.367188 43.234375 C 35.367188 43.246094 35.371094 43.261719 35.371094 43.273438 C 35.371094 43.277344 35.371094 43.285156 35.375 43.289062 L 42.253906 84.382812 C 42.324219 84.808594 42.730469 85.097656 43.160156 85.027344 L 63.222656 81.691406 C 63.652344 81.621094 63.941406 81.21875 63.871094 80.789062 L 56.988281 39.695312 C 56.988281 39.691406 56.988281 39.6875 56.988281 39.679688 Z M 56.988281 39.679688 "/>
<path style=" stroke:none;fill-rule:nonzero;fill:rgb(5.098039%,57.647059%,69.803922%);fill-opacity:1;" d="M 34.988281 43.089844 L 36.425781 41.714844 L 55.761719 38.550781 L 57.703125 39.753906 C 57.703125 39.753906 57.828125 41.5 57.726562 41.542969 C 57.625 41.589844 35.234375 45.578125 35.179688 45.234375 C 35.121094 44.890625 34.988281 43.089844 34.988281 43.089844 Z M 34.988281 43.089844 "/>
<use xlink:href="#surface17" mask="url(#mask4)"/>
<path style=" stroke:none;fill-rule:nonzero;fill:rgb(12.54902%,6.666667%,11.372549%);fill-opacity:1;" d="M 63.800781 80.363281 C 63.910156 81.027344 63.460938 81.652344 62.796875 81.761719 L 43.585938 84.957031 C 42.921875 85.066406 42.292969 84.621094 42.183594 83.957031 L 35.449219 43.738281 C 35.324219 43 35.824219 42.300781 36.566406 42.175781 L 55.5 39.03125 C 56.238281 38.90625 56.941406 39.40625 57.066406 40.144531 Z M 55.390625 38.132812 L 36.378906 41.292969 C 35.15625 41.496094 34.328125 42.648438 34.53125 43.867188 L 41.335938 84.5 C 41.539062 85.71875 42.699219 86.542969 43.921875 86.339844 L 62.929688 83.179688 C 64.15625 82.976562 64.980469 81.824219 64.777344 80.605469 L 57.972656 39.972656 C 57.769531 38.753906 56.613281 37.929688 55.390625 38.132812 Z M 55.390625 38.132812 "/>
<path style=" stroke:none;fill-rule:nonzero;fill:rgb(99.607843%,62.352941%,45.098039%);fill-opacity:1;" d="M 50.859375 93.914062 L 50.859375 93.984375 L 50.832031 99.203125 L 50.789062 108.0625 C 47.949219 107.359375 45.515625 106.679688 43.617188 106.121094 C 40.410156 105.175781 37.371094 103.730469 34.632812 101.820312 C 34.617188 101.808594 34.605469 101.800781 34.589844 101.789062 L 34.957031 90.605469 C 34.957031 90.605469 32.652344 80.164062 32.808594 77.667969 C 32.96875 75.171875 34.621094 69.449219 35.367188 67.25 C 35.589844 66.605469 35.71875 65.765625 35.796875 64.90625 C 35.800781 64.839844 35.808594 64.777344 35.8125 64.710938 C 35.878906 63.882812 35.894531 63.050781 35.890625 62.351562 C 35.890625 62.332031 35.890625 62.308594 35.890625 62.285156 C 35.890625 62.226562 35.890625 62.167969 35.890625 62.109375 C 35.890625 62.09375 35.890625 62.078125 35.890625 62.0625 C 35.878906 61.21875 35.84375 60.644531 35.84375 60.644531 C 35.859375 60.5 35.878906 60.367188 35.902344 60.242188 C 35.929688 60.109375 35.960938 59.988281 35.996094 59.875 C 36.019531 59.789062 36.050781 59.707031 36.082031 59.628906 C 36.296875 59.117188 36.628906 58.828125 37.019531 58.722656 C 37.308594 58.640625 37.632812 58.660156 37.964844 58.761719 C 39.144531 59.117188 40.457031 60.488281 40.921875 62.0625 C 41.792969 65.007812 41.011719 73.519531 41.011719 73.519531 C 41.011719 73.519531 43.027344 75.550781 44.292969 79.59375 C 44.628906 80.667969 44.914062 81.878906 45.089844 83.234375 C 45.160156 83.75 45.191406 84.234375 45.195312 84.6875 C 45.203125 85.210938 45.164062 85.695312 45.101562 86.144531 C 45.007812 86.777344 44.847656 87.335938 44.648438 87.828125 C 43.589844 90.445312 41.367188 91.148438 41.367188 91.148438 L 41.511719 91.191406 L 45.140625 92.25 L 50.667969 93.859375 Z M 50.859375 93.914062 "/>
<path style=" stroke:none;fill-rule:nonzero;fill:rgb(99.607843%,62.352941%,45.098039%);fill-opacity:1;" d="M 62.402344 65.953125 L 62.648438 67.457031 C 62.648438 67.457031 60.519531 69.597656 61.214844 72.316406 C 61.90625 75.035156 63.742188 75.363281 63.742188 75.363281 C 63.742188 75.363281 66.609375 71.535156 66.566406 70.207031 C 66.519531 68.875 66.507812 66.542969 62.402344 65.953125 Z M 62.402344 65.953125 "/>
<path style=" stroke:none;fill-rule:nonzero;fill:rgb(96.862745%,54.117647%,36.862745%);fill-opacity:1;" d="M 64.109375 74.859375 C 64.109375 74.859375 65.257812 73.699219 66.324219 71.164062 C 66.148438 71.054688 65.820312 70.960938 65.609375 70.898438 C 64.960938 70.703125 64.546875 70.835938 64.195312 71.292969 L 62.875 73.214844 C 62.875 73.214844 62.621094 73.707031 63.179688 74.273438 C 63.394531 74.492188 64.109375 74.859375 64.109375 74.859375 Z M 64.109375 74.859375 "/>
<path style=" stroke:none;fill-rule:nonzero;fill:rgb(0%,0%,0%);fill-opacity:1;" d="M 63.78125 75.464844 L 63.722656 75.453125 C 62.800781 75.222656 62.230469 74.515625 62.207031 74.488281 C 62.148438 74.417969 60.691406 72.6875 60.984375 70.679688 C 61.273438 68.675781 62.957031 67.046875 63.027344 66.980469 L 63.152344 67.109375 C 63.136719 67.125 61.441406 68.765625 61.164062 70.703125 C 60.886719 72.632812 62.332031 74.355469 62.347656 74.371094 C 62.355469 74.382812 62.878906 75.03125 63.707031 75.261719 L 65.339844 72.960938 C 67.054688 70.496094 66.265625 68.570312 66.257812 68.550781 L 66.421875 68.480469 C 66.433594 68.5 66.640625 68.996094 66.628906 69.8125 C 66.621094 70.5625 66.414062 71.734375 65.488281 73.0625 Z M 63.78125 75.464844 "/>
<path style=" stroke:none;fill-rule:nonzero;fill:rgb(99.607843%,62.352941%,45.098039%);fill-opacity:1;" d="M 64.0625 76.199219 L 64.257812 77.375 C 64.257812 77.375 62.59375 79.050781 63.136719 81.175781 C 63.679688 83.300781 65.113281 83.554688 65.113281 83.554688 C 65.113281 83.554688 67.351562 80.5625 67.316406 79.523438 C 67.28125 78.484375 67.273438 76.664062 64.0625 76.199219 Z M 64.0625 76.199219 "/>
<path style=" stroke:none;fill-rule:nonzero;fill:rgb(96.862745%,54.117647%,36.862745%);fill-opacity:1;" d="M 65.398438 83.160156 C 65.398438 83.160156 66.296875 82.253906 67.132812 80.273438 C 66.992188 80.1875 66.734375 80.113281 66.570312 80.0625 C 66.0625 79.914062 65.742188 80.019531 65.464844 80.371094 L 64.4375 81.875 C 64.4375 81.875 64.238281 82.261719 64.671875 82.703125 C 64.839844 82.875 65.398438 83.160156 65.398438 83.160156 Z M 65.398438 83.160156 "/>
<path style=" stroke:none;fill-rule:nonzero;fill:rgb(0%,0%,0%);fill-opacity:1;" d="M 65.144531 83.636719 L 65.097656 83.625 C 64.375 83.445312 63.929688 82.894531 63.914062 82.871094 C 63.867188 82.816406 62.730469 81.464844 62.957031 79.894531 C 63.183594 78.328125 64.496094 77.054688 64.554688 77.003906 L 64.652344 77.105469 C 64.640625 77.117188 63.316406 78.398438 63.097656 79.914062 C 62.878906 81.421875 64.011719 82.765625 64.023438 82.78125 C 64.027344 82.789062 64.4375 83.296875 65.082031 83.472656 L 66.363281 81.675781 C 67.699219 79.753906 67.082031 78.246094 67.078125 78.230469 L 67.207031 78.175781 C 67.234375 78.238281 67.863281 79.765625 66.476562 81.757812 Z M 65.144531 83.636719 "/>
<path style=" stroke:none;fill-rule:nonzero;fill:rgb(99.607843%,62.352941%,45.098039%);fill-opacity:1;" d="M 44.734375 87.585938 C 44.734375 87.585938 43.300781 91.289062 45.140625 92.246094 C 46.980469 93.207031 40.707031 93.71875 40.710938 93.539062 C 40.710938 93.359375 36.378906 87.996094 37.46875 87.730469 C 38.558594 87.464844 41.972656 86.214844 42.742188 87.03125 C 43.507812 87.851562 44.734375 87.585938 44.734375 87.585938 Z M 44.734375 87.585938 "/>
<path style=" stroke:none;fill-rule:nonzero;fill:rgb(99.607843%,62.352941%,45.098039%);fill-opacity:1;" d="M 60.949219 57.042969 L 61.195312 58.550781 C 61.195312 58.550781 59.066406 60.691406 59.761719 63.410156 C 60.457031 66.128906 62.292969 66.457031 62.292969 66.457031 C 62.292969 66.457031 65.160156 62.628906 65.113281 61.296875 C 65.070312 59.96875 65.058594 57.636719 60.949219 57.042969 Z M 60.949219 57.042969 "/>
<path style=" stroke:none;fill-rule:nonzero;fill:rgb(96.862745%,54.117647%,36.862745%);fill-opacity:1;" d="M 62.65625 65.953125 C 62.65625 65.953125 63.808594 64.792969 64.875 62.257812 C 64.699219 62.148438 64.367188 62.050781 64.15625 61.988281 C 63.507812 61.796875 63.09375 61.929688 62.746094 62.382812 L 61.425781 64.308594 C 61.425781 64.308594 61.171875 64.800781 61.730469 65.367188 C 61.941406 65.585938 62.65625 65.953125 62.65625 65.953125 Z M 62.65625 65.953125 "/>
<path style=" stroke:none;fill-rule:nonzero;fill:rgb(0%,0%,0%);fill-opacity:1;" d="M 50.742188 99.199219 L 50.769531 93.914062 L 50.953125 93.914062 L 50.925781 99.203125 Z M 50.742188 99.199219 "/>
<path style=" stroke:none;fill-rule:nonzero;fill:rgb(0%,0%,0%);fill-opacity:1;" d="M 50.382812 94.1875 L 50.3125 94.023438 C 53.398438 92.664062 56.265625 90.054688 57.621094 88.203125 C 58.824219 86.566406 59.339844 85.359375 59.34375 85.347656 L 59.511719 85.414062 C 59.507812 85.429688 58.984375 86.65625 57.769531 88.3125 C 56.398438 90.179688 53.5 92.816406 50.382812 94.1875 Z M 50.382812 94.1875 "/>
<path style=" stroke:none;fill-rule:nonzero;fill:rgb(96.862745%,54.117647%,36.862745%);fill-opacity:1;" d="M 37.875 60.152344 C 37.695312 59.640625 36.386719 59.574219 36.003906 59.640625 C 35.753906 59.683594 36.015625 64.492188 35.8125 64.710938 C 35.8125 64.710938 35.777344 64.769531 36.410156 64.792969 C 37.109375 64.816406 37.597656 64.523438 37.597656 64.523438 C 37.597656 64.523438 38.058594 60.660156 37.875 60.152344 Z M 37.875 60.152344 "/>
<path style=" stroke:none;fill-rule:nonzero;fill:rgb(0%,0%,0%);fill-opacity:1;" d="M 62.332031 66.558594 L 62.269531 66.546875 C 61.441406 66.347656 60.785156 65.613281 60.757812 65.582031 C 60.695312 65.511719 59.242188 63.78125 59.53125 61.773438 C 59.820312 59.769531 61.503906 58.140625 61.578125 58.070312 L 61.703125 58.203125 C 61.683594 58.21875 59.992188 59.859375 59.710938 61.796875 C 59.433594 63.726562 60.882812 65.449219 60.894531 65.464844 C 60.902344 65.472656 61.507812 66.152344 62.253906 66.355469 L 63.890625 64.054688 C 65.601562 61.589844 64.8125 59.664062 64.804688 59.644531 L 64.972656 59.574219 C 64.980469 59.59375 65.1875 60.089844 65.179688 60.90625 C 65.167969 61.65625 64.964844 62.828125 64.039062 64.15625 Z M 62.332031 66.558594 "/>
<path style=" stroke:none;fill-rule:nonzero;fill:rgb(0%,0%,0%);fill-opacity:1;" d="M 61.105469 58.5625 L 58.234375 42.085938 L 58.414062 42.054688 L 61.285156 58.535156 Z M 61.105469 58.5625 "/>
<path style=" stroke:none;fill-rule:nonzero;fill:rgb(0%,0%,0%);fill-opacity:1;" d="M 63.203125 49.425781 L 63.054688 49.320312 C 63.066406 49.300781 64.3125 47.527344 63.398438 46.492188 C 62.472656 45.441406 59.199219 46.160156 59.167969 46.167969 L 59.128906 45.988281 C 59.265625 45.960938 62.539062 45.242188 63.535156 46.371094 C 64.542969 47.515625 63.257812 49.347656 63.203125 49.425781 Z M 63.203125 49.425781 "/>
<path style=" stroke:none;fill-rule:nonzero;fill:rgb(0%,0.392157%,0%);fill-opacity:1;" d="M 38.597656 89.1875 C 38.570312 89.207031 38.535156 89.210938 38.503906 89.195312 C 37.421875 88.722656 36.410156 87.144531 36.371094 87.078125 C 36.339844 87.03125 36.355469 86.972656 36.398438 86.945312 C 36.445312 86.917969 36.503906 86.929688 36.53125 86.976562 C 36.542969 86.992188 37.554688 88.574219 38.582031 89.023438 C 38.628906 89.042969 38.652344 89.101562 38.628906 89.148438 C 38.621094 89.164062 38.609375 89.175781 38.597656 89.1875 Z M 38.597656 89.1875 "/>
<path style=" stroke:none;fill-rule:nonzero;fill:rgb(0%,0.392157%,0%);fill-opacity:1;" d="M 39.90625 88.988281 C 39.882812 89.003906 39.859375 89.007812 39.832031 89.003906 C 38.671875 88.773438 37.34375 87.449219 37.289062 87.390625 C 37.25 87.355469 37.25 87.292969 37.289062 87.257812 C 37.328125 87.21875 37.386719 87.21875 37.425781 87.257812 C 37.4375 87.269531 38.769531 88.597656 39.867188 88.816406 C 39.921875 88.828125 39.953125 88.878906 39.941406 88.929688 C 39.9375 88.953125 39.925781 88.972656 39.90625 88.988281 Z M 39.90625 88.988281 "/>
<path style=" stroke:none;fill-rule:nonzero;fill:rgb(0%,0%,0%);fill-opacity:1;" d="M 41.394531 91.234375 L 41.339844 91.0625 C 41.351562 91.058594 42.476562 90.691406 43.488281 89.550781 C 44.417969 88.496094 45.4375 86.550781 45 83.25 C 44.5625 79.925781 43.484375 77.476562 42.65625 76.003906 C 41.761719 74.410156 40.957031 73.59375 40.949219 73.585938 L 40.917969 73.554688 L 40.921875 73.511719 C 40.929688 73.429688 41.691406 64.980469 40.835938 62.089844 C 40.324219 60.355469 38.691406 58.769531 37.40625 58.761719 C 36.769531 58.757812 36.3125 59.152344 36.082031 59.902344 C 36.011719 60.121094 35.964844 60.371094 35.933594 60.644531 C 35.945312 60.789062 36.0625 62.925781 35.886719 64.914062 C 35.800781 65.894531 35.65625 66.691406 35.453125 67.28125 C 34.769531 69.292969 33.0625 75.144531 32.902344 77.671875 C 32.742188 80.128906 35.023438 90.480469 35.046875 90.585938 L 34.867188 90.621094 C 34.773438 90.195312 32.5625 80.140625 32.71875 77.660156 C 32.882812 75.113281 34.597656 69.242188 35.28125 67.222656 C 35.476562 66.648438 35.621094 65.867188 35.707031 64.898438 C 35.886719 62.863281 35.753906 60.671875 35.753906 60.648438 L 35.753906 60.632812 C 35.785156 60.34375 35.835938 60.078125 35.90625 59.847656 C 36.234375 58.796875 36.902344 58.578125 37.40625 58.582031 C 37.40625 58.582031 37.40625 58.582031 37.410156 58.582031 C 38.054688 58.585938 38.820312 58.964844 39.507812 59.621094 C 40.214844 60.289062 40.746094 61.148438 41.007812 62.039062 C 41.851562 64.890625 41.171875 72.773438 41.105469 73.488281 C 41.261719 73.652344 42 74.46875 42.8125 75.910156 C 43.648438 77.394531 44.738281 79.871094 45.179688 83.226562 C 45.378906 84.710938 45.300781 86.058594 44.957031 87.226562 C 44.679688 88.164062 44.226562 88.988281 43.617188 89.679688 C 42.574219 90.851562 41.441406 91.21875 41.394531 91.234375 Z M 41.394531 91.234375 "/>
<path style=" stroke:none;fill-rule:nonzero;fill:rgb(99.607843%,62.352941%,45.098039%);fill-opacity:1;" d="M 91.511719 48.761719 C 91.511719 48.761719 87.871094 48.550781 87.105469 50.039062 C 86.335938 51.527344 89.480469 54.675781 91.417969 54.609375 C 93.359375 54.542969 91.511719 48.761719 91.511719 48.761719 Z M 91.511719 48.761719 "/>
<path style=" stroke:none;fill-rule:nonzero;fill:rgb(92.941176%,44.313725%,38.823529%);fill-opacity:1;" d="M 110.222656 95.054688 C 110.222656 95.054688 100.566406 92.386719 97.824219 86.625 C 95.082031 80.863281 105.375 78.179688 105.230469 78.207031 C 105.085938 78.234375 116.351562 79.105469 117.402344 80.699219 C 118.457031 82.296875 123.007812 88.914062 121.707031 89.160156 C 120.402344 89.402344 110.222656 95.054688 110.222656 95.054688 Z M 110.222656 95.054688 "/>
<path style=" stroke:none;fill-rule:nonzero;fill:rgb(81.568627%,96.470588%,98.823529%);fill-opacity:1;" d="M 92.351562 42.074219 C 92.351562 42.0625 92.351562 42.046875 92.351562 42.035156 C 92.371094 41.582031 92.730469 41.210938 93.183594 41.179688 C 93.199219 41.175781 93.210938 41.175781 93.226562 41.175781 C 93.230469 41.175781 93.234375 41.175781 93.238281 41.175781 L 113.347656 40.847656 C 113.351562 40.847656 113.355469 40.847656 113.359375 40.847656 C 113.375 40.847656 113.386719 40.851562 113.398438 40.851562 C 113.855469 40.871094 114.226562 41.226562 114.261719 41.679688 C 114.261719 41.691406 114.261719 41.707031 114.261719 41.71875 C 114.261719 41.722656 114.261719 41.730469 114.261719 41.734375 L 114.945312 83.390625 C 114.949219 83.824219 114.605469 84.179688 114.167969 84.1875 L 93.832031 84.515625 C 93.398438 84.523438 93.039062 84.179688 93.03125 83.746094 L 92.351562 42.089844 C 92.351562 42.085938 92.351562 42.078125 92.351562 42.074219 Z M 92.351562 42.074219 "/>
<path style=" stroke:none;fill-rule:nonzero;fill:rgb(5.098039%,57.647059%,69.803922%);fill-opacity:1;" d="M 114.605469 41.46875 L 112.945312 40.375 L 93.351562 40.742188 L 91.660156 42.277344 C 91.660156 42.277344 91.855469 44.015625 91.960938 44.042969 C 92.070312 44.066406 114.816406 43.960938 114.808594 43.613281 C 114.800781 43.261719 114.605469 41.46875 114.605469 41.46875 Z M 114.605469 41.46875 "/>
<use xlink:href="#surface20" mask="url(#mask5)"/>
<path style=" stroke:none;fill-rule:nonzero;fill:rgb(12.54902%,6.666667%,11.372549%);fill-opacity:1;" d="M 92.359375 42.546875 C 92.347656 41.796875 92.945312 41.179688 93.699219 41.167969 L 112.886719 40.855469 C 113.640625 40.84375 114.257812 41.441406 114.269531 42.191406 L 114.9375 82.960938 C 114.949219 83.632812 114.410156 84.183594 113.738281 84.195312 L 94.265625 84.511719 C 93.589844 84.519531 93.035156 83.984375 93.023438 83.316406 Z M 91.433594 42.539062 L 92.105469 83.726562 C 92.125 84.960938 93.148438 85.949219 94.386719 85.925781 L 113.660156 85.613281 C 114.898438 85.59375 115.886719 84.578125 115.867188 83.339844 L 115.195312 42.152344 C 115.175781 40.917969 114.152344 39.929688 112.914062 39.953125 L 93.644531 40.265625 C 92.402344 40.285156 91.414062 41.300781 91.433594 42.539062 Z M 91.433594 42.539062 "/>
<path style=" stroke:none;fill-rule:nonzero;fill:rgb(99.607843%,62.352941%,45.098039%);fill-opacity:1;" d="M 123.964844 101.878906 C 119.367188 105.761719 113.898438 108.414062 107.984375 110.136719 L 107.992188 102.230469 L 107.996094 99.507812 L 108.21875 94.382812 L 108.214844 94.367188 L 108.207031 94.3125 L 108.261719 94.285156 L 108.382812 94.226562 L 113.53125 91.644531 L 116.90625 89.953125 L 117.042969 89.886719 C 117.042969 89.886719 114.71875 89.59375 113.203125 87.199219 C 113.203125 87.195312 113.203125 87.195312 113.199219 87.191406 C 113.199219 87.191406 113.199219 87.1875 113.199219 87.1875 C 112.917969 86.746094 112.667969 86.230469 112.464844 85.632812 C 112.316406 85.207031 112.195312 84.738281 112.105469 84.222656 C 112.027344 83.773438 111.972656 83.292969 111.945312 82.773438 C 111.90625 81.976562 111.90625 81.21875 111.945312 80.507812 C 111.96875 80 112.011719 79.511719 112.070312 79.050781 L 112.070312 79.046875 C 112.136719 78.492188 112.226562 77.964844 112.324219 77.472656 C 112.601562 76.113281 112.980469 75.011719 113.324219 74.191406 C 113.792969 73.074219 114.195312 72.484375 114.195312 72.484375 C 114.195312 72.484375 113.707031 70.742188 113.210938 68.5625 C 113.171875 68.382812 113.128906 68.203125 113.089844 68.019531 C 112.550781 65.574219 112.046875 62.730469 112.207031 61.199219 C 112.378906 59.5625 113.425781 57.980469 114.519531 57.417969 C 114.828125 57.261719 115.140625 57.183594 115.441406 57.207031 C 115.84375 57.246094 116.222656 57.46875 116.527344 57.933594 C 116.574219 58.003906 116.617188 58.078125 116.660156 58.160156 C 116.714844 58.261719 116.765625 58.375 116.8125 58.5 C 116.863281 58.621094 116.90625 58.75 116.945312 58.886719 C 116.945312 58.886719 117.019531 59.503906 117.171875 60.382812 C 117.179688 60.425781 117.1875 60.46875 117.195312 60.511719 C 117.203125 60.550781 117.210938 60.589844 117.21875 60.632812 C 117.339844 61.304688 117.503906 62.101562 117.714844 62.882812 C 117.714844 62.882812 117.714844 62.882812 117.714844 62.886719 C 117.730469 62.949219 117.75 63.011719 117.765625 63.074219 C 117.996094 63.90625 118.277344 64.703125 118.609375 65.300781 C 119.746094 67.332031 122.40625 72.660156 123.015625 75.085938 C 123.625 77.511719 123.25 88.195312 123.25 88.195312 Z M 123.964844 101.878906 "/>
<path style=" stroke:none;fill-rule:nonzero;fill:rgb(99.607843%,62.352941%,45.098039%);fill-opacity:1;" d="M 91.789062 68.886719 L 91.816406 70.414062 C 91.816406 70.414062 94.300781 72.136719 94.109375 74.933594 C 93.917969 77.734375 92.171875 78.386719 92.171875 78.386719 C 92.171875 78.386719 88.660156 75.136719 88.460938 73.820312 C 88.265625 72.503906 87.855469 70.210938 91.789062 68.886719 Z M 91.789062 68.886719 "/>
<path style=" stroke:none;fill-rule:nonzero;fill:rgb(96.862745%,54.117647%,36.862745%);fill-opacity:1;" d="M 91.722656 77.957031 C 91.722656 77.957031 90.382812 77.023438 88.871094 74.71875 C 89.027344 74.582031 89.332031 74.429688 89.53125 74.328125 C 90.132812 74.023438 90.5625 74.078125 90.988281 74.460938 L 92.636719 76.117188 C 92.636719 76.117188 92.976562 76.554688 92.53125 77.214844 C 92.359375 77.46875 91.722656 77.957031 91.722656 77.957031 Z M 91.722656 77.957031 "/>
<path style=" stroke:none;fill-rule:nonzero;fill:rgb(0%,0%,0%);fill-opacity:1;" d="M 92.152344 78.496094 L 90.039062 76.441406 C 88.886719 75.296875 88.472656 74.179688 88.328125 73.445312 C 88.167969 72.644531 88.285156 72.121094 88.289062 72.097656 L 88.46875 72.136719 C 88.460938 72.160156 88.035156 74.195312 90.167969 76.308594 L 92.191406 78.277344 C 92.960938 77.90625 93.359375 77.171875 93.367188 77.164062 C 93.378906 77.140625 94.488281 75.1875 93.867188 73.339844 C 93.238281 71.484375 91.277344 70.175781 91.257812 70.164062 L 91.355469 70.011719 C 91.441406 70.066406 93.390625 71.367188 94.039062 73.28125 C 94.6875 75.207031 93.570312 77.167969 93.523438 77.25 C 93.507812 77.28125 93.074219 78.082031 92.210938 78.46875 Z M 92.152344 78.496094 "/>
<path style=" stroke:none;fill-rule:nonzero;fill:rgb(99.607843%,62.352941%,45.098039%);fill-opacity:1;" d="M 92.007812 79.265625 L 92.03125 80.457031 C 92.03125 80.457031 93.972656 81.804688 93.824219 83.992188 C 93.675781 86.179688 92.308594 86.691406 92.308594 86.691406 C 92.308594 86.691406 89.566406 84.148438 89.410156 83.121094 C 89.257812 82.09375 88.9375 80.300781 92.007812 79.265625 Z M 92.007812 79.265625 "/>
<path style=" stroke:none;fill-rule:nonzero;fill:rgb(96.862745%,54.117647%,36.862745%);fill-opacity:1;" d="M 91.957031 86.355469 C 91.957031 86.355469 90.910156 85.621094 89.730469 83.824219 C 89.851562 83.714844 90.089844 83.597656 90.246094 83.519531 C 90.714844 83.28125 91.050781 83.324219 91.386719 83.625 L 92.671875 84.917969 C 92.671875 84.917969 92.9375 85.257812 92.589844 85.773438 C 92.457031 85.972656 91.957031 86.355469 91.957031 86.355469 Z M 91.957031 86.355469 "/>
<path style=" stroke:none;fill-rule:nonzero;fill:rgb(0%,0%,0%);fill-opacity:1;" d="M 92.296875 86.773438 L 90.644531 85.167969 C 88.917969 83.457031 89.261719 81.84375 89.277344 81.777344 L 89.414062 81.808594 C 89.410156 81.824219 89.078125 83.414062 90.742188 85.066406 L 92.324219 86.605469 C 92.929688 86.3125 93.238281 85.738281 93.242188 85.734375 C 93.25 85.714844 94.121094 84.1875 93.632812 82.746094 C 93.144531 81.296875 91.609375 80.273438 91.59375 80.261719 L 91.671875 80.144531 C 91.738281 80.1875 93.261719 81.203125 93.769531 82.699219 C 94.277344 84.207031 93.402344 85.738281 93.367188 85.800781 C 93.351562 85.824219 93.015625 86.449219 92.339844 86.753906 Z M 92.296875 86.773438 "/>
<path style=" stroke:none;fill-rule:nonzero;fill:rgb(99.607843%,62.352941%,45.098039%);fill-opacity:1;" d="M 113.082031 86.988281 C 113.082031 86.988281 115.167969 90.371094 113.53125 91.644531 C 111.894531 92.921875 118.15625 92.296875 118.121094 92.117188 C 118.089844 91.941406 121.378906 85.886719 120.257812 85.820312 C 119.136719 85.757812 115.550781 85.140625 114.945312 86.085938 C 114.339844 87.027344 113.082031 86.988281 113.082031 86.988281 Z M 113.082031 86.988281 "/>
<path style=" stroke:none;fill-rule:nonzero;fill:rgb(99.607843%,62.352941%,45.098039%);fill-opacity:1;" d="M 91.601562 59.867188 L 91.628906 61.390625 C 91.628906 61.390625 94.113281 63.113281 93.921875 65.914062 C 93.730469 68.710938 91.988281 69.367188 91.988281 69.367188 C 91.988281 69.367188 88.472656 66.113281 88.277344 64.800781 C 88.078125 63.484375 87.667969 61.1875 91.601562 59.867188 Z M 91.601562 59.867188 "/>
<path style=" stroke:none;fill-rule:nonzero;fill:rgb(96.862745%,54.117647%,36.862745%);fill-opacity:1;" d="M 91.535156 68.933594 C 91.535156 68.933594 90.195312 68 88.683594 65.699219 C 88.839844 65.558594 89.148438 65.40625 89.34375 65.308594 C 89.945312 65 90.375 65.058594 90.804688 65.441406 L 92.449219 67.097656 C 92.449219 67.097656 92.789062 67.535156 92.34375 68.191406 C 92.171875 68.445312 91.535156 68.933594 91.535156 68.933594 Z M 91.535156 68.933594 "/>
<path style=" stroke:none;fill-rule:nonzero;fill:rgb(0%,0%,0%);fill-opacity:1;" d="M 107.902344 102.234375 L 108.117188 94.320312 L 108.296875 94.324219 L 108.085938 102.242188 Z M 107.902344 102.234375 "/>
<path style=" stroke:none;fill-rule:nonzero;fill:rgb(0%,0%,0%);fill-opacity:1;" d="M 108.722656 94.496094 C 105.410156 93.710938 102.082031 91.640625 100.394531 90.046875 C 98.902344 88.636719 98.164062 87.523438 98.15625 87.511719 L 98.308594 87.414062 C 98.316406 87.425781 99.042969 88.523438 100.519531 89.914062 C 102.191406 91.492188 105.484375 93.542969 108.765625 94.320312 Z M 108.722656 94.496094 "/>
<path style=" stroke:none;fill-rule:nonzero;fill:rgb(96.862745%,54.117647%,36.862745%);fill-opacity:1;" d="M 114.859375 58.769531 C 114.941406 58.234375 116.21875 57.933594 116.609375 57.929688 C 116.859375 57.929688 117.476562 62.703125 117.714844 62.882812 C 117.714844 62.882812 117.761719 62.933594 117.140625 63.070312 C 116.457031 63.222656 115.925781 63.019531 115.925781 63.019531 C 115.925781 63.019531 114.773438 59.304688 114.859375 58.769531 Z M 114.859375 58.769531 "/>
<path style=" stroke:none;fill-rule:nonzero;fill:rgb(0%,0%,0%);fill-opacity:1;" d="M 91.96875 69.472656 L 89.851562 67.417969 C 88.699219 66.273438 88.285156 65.160156 88.140625 64.425781 C 87.984375 63.625 88.097656 63.097656 88.101562 63.078125 L 88.28125 63.117188 C 88.277344 63.136719 87.847656 65.175781 89.980469 67.289062 L 92.003906 69.257812 C 92.699219 68.921875 93.175781 68.144531 93.179688 68.136719 C 93.191406 68.117188 94.300781 66.164062 93.679688 64.316406 C 93.054688 62.460938 91.089844 61.152344 91.070312 61.140625 L 91.171875 60.988281 C 91.253906 61.042969 93.203125 62.34375 93.851562 64.261719 C 94.5 66.1875 93.386719 68.148438 93.335938 68.230469 C 93.316406 68.265625 92.800781 69.105469 92.023438 69.449219 Z M 91.96875 69.472656 "/>
<path style=" stroke:none;fill-rule:nonzero;fill:rgb(0%,0%,0%);fill-opacity:1;" d="M 91.601562 61.390625 L 91.398438 44.679688 L 91.515625 44.675781 L 91.722656 61.390625 Z M 91.601562 61.390625 "/>
<path style=" stroke:none;fill-rule:nonzero;fill:rgb(0%,0%,0%);fill-opacity:1;" d="M 88.003906 52.777344 C 87.933594 52.710938 86.339844 51.140625 87.121094 49.835938 C 87.898438 48.542969 91.246094 48.660156 91.390625 48.664062 L 91.382812 48.847656 C 91.347656 48.84375 88 48.726562 87.277344 49.929688 C 86.566406 51.113281 88.113281 52.632812 88.128906 52.648438 Z M 88.003906 52.777344 "/>
<path style=" stroke:none;fill-rule:nonzero;fill:rgb(0%,0.392157%,0%);fill-opacity:1;" d="M 119.410156 87.457031 C 119.441406 87.472656 119.476562 87.472656 119.503906 87.449219 C 120.480469 86.789062 121.191406 85.054688 121.21875 84.980469 C 121.238281 84.933594 121.214844 84.878906 121.167969 84.859375 C 121.117188 84.835938 121.0625 84.863281 121.042969 84.910156 C 121.035156 84.929688 120.324219 86.664062 119.398438 87.292969 C 119.355469 87.324219 119.34375 87.382812 119.371094 87.425781 C 119.382812 87.441406 119.394531 87.453125 119.410156 87.457031 Z M 119.410156 87.457031 "/>
<path style=" stroke:none;fill-rule:nonzero;fill:rgb(0%,0.392157%,0%);fill-opacity:1;" d="M 118.089844 87.496094 C 118.113281 87.507812 118.140625 87.511719 118.164062 87.5 C 119.261719 87.066406 120.328125 85.523438 120.375 85.457031 C 120.402344 85.414062 120.390625 85.355469 120.347656 85.324219 C 120.304688 85.292969 120.246094 85.304688 120.214844 85.347656 C 120.203125 85.363281 119.136719 86.910156 118.09375 87.324219 C 118.042969 87.34375 118.019531 87.398438 118.039062 87.445312 C 118.050781 87.46875 118.066406 87.488281 118.089844 87.496094 Z M 118.089844 87.496094 "/>
<path style=" stroke:none;fill-rule:nonzero;fill:rgb(0%,0%,0%);fill-opacity:1;" d="M 117.03125 89.976562 C 116.980469 89.96875 115.800781 89.8125 114.5625 88.84375 C 113.835938 88.277344 113.246094 87.546875 112.800781 86.675781 C 112.25 85.585938 111.929688 84.277344 111.855469 82.777344 C 111.679688 79.398438 112.304688 76.769531 112.859375 75.15625 C 113.398438 73.59375 113.976562 72.660156 114.097656 72.46875 C 113.90625 71.777344 111.804688 64.144531 112.117188 61.191406 C 112.214844 60.269531 112.585938 59.328125 113.15625 58.539062 C 113.714844 57.773438 114.398438 57.261719 115.03125 57.140625 C 115.527344 57.046875 116.226562 57.140625 116.738281 58.117188 C 116.851562 58.332031 116.953125 58.582031 117.03125 58.863281 L 117.035156 58.878906 C 117.039062 58.898438 117.304688 61.078125 117.851562 63.046875 C 118.113281 63.984375 118.394531 64.726562 118.691406 65.257812 C 119.730469 67.121094 122.480469 72.589844 123.101562 75.0625 C 123.710938 77.476562 123.355469 87.761719 123.339844 88.199219 L 123.15625 88.191406 C 123.160156 88.085938 123.527344 77.492188 122.925781 75.109375 C 122.308594 72.648438 119.570312 67.203125 118.53125 65.34375 C 118.226562 64.804688 117.941406 64.046875 117.679688 63.097656 C 117.144531 61.171875 116.875 59.050781 116.855469 58.90625 C 116.777344 58.640625 116.683594 58.402344 116.578125 58.199219 C 116.214844 57.503906 115.691406 57.199219 115.066406 57.320312 C 113.808594 57.558594 112.488281 59.414062 112.296875 61.207031 C 111.980469 64.207031 114.261719 72.378906 114.285156 72.460938 L 114.296875 72.5 L 114.269531 72.535156 C 114.265625 72.546875 113.621094 73.496094 113.027344 75.222656 C 112.480469 76.816406 111.863281 79.421875 112.035156 82.769531 C 112.207031 86.101562 113.566406 87.832031 114.675781 88.703125 C 115.875 89.640625 117.042969 89.796875 117.054688 89.796875 Z M 117.03125 89.976562 "/>
<path style=" stroke:none;fill-rule:nonzero;fill:rgb(96.862745%,34.901961%,49.803922%);fill-opacity:1;" d="M 71.4375 67.011719 L 45.324219 72.335938 C 44.839844 72.433594 44.367188 72.125 44.265625 71.640625 L 41.039062 55.929688 C 40.941406 55.445312 41.253906 54.976562 41.738281 54.875 L 67.851562 49.550781 C 68.335938 49.453125 68.808594 49.765625 68.90625 50.246094 L 72.132812 65.957031 C 72.234375 66.441406 71.921875 66.914062 71.4375 67.011719 Z M 71.4375 67.011719 "/>
<use xlink:href="#surface23" mask="url(#mask6)"/>
<path style=" stroke:none;fill-rule:nonzero;fill:rgb(100%,100%,100%);fill-opacity:1;" d="M 46.015625 66.238281 C 46.007812 66.328125 45.988281 66.40625 45.953125 66.46875 C 45.917969 66.535156 45.867188 66.585938 45.808594 66.625 C 45.746094 66.664062 45.675781 66.691406 45.59375 66.707031 C 45.511719 66.722656 45.433594 66.726562 45.363281 66.714844 C 45.289062 66.703125 45.226562 66.675781 45.167969 66.628906 C 45.109375 66.585938 45.0625 66.523438 45.019531 66.441406 C 44.976562 66.359375 44.941406 66.261719 44.917969 66.140625 L 44.859375 65.847656 C 44.832031 65.726562 44.824219 65.621094 44.832031 65.53125 C 44.839844 65.441406 44.859375 65.363281 44.894531 65.300781 C 44.929688 65.234375 44.980469 65.183594 45.039062 65.144531 C 45.101562 65.105469 45.171875 65.078125 45.253906 65.0625 C 45.339844 65.046875 45.414062 65.042969 45.484375 65.054688 C 45.558594 65.066406 45.621094 65.09375 45.679688 65.140625 C 45.734375 65.183594 45.785156 65.246094 45.828125 65.328125 C 45.871094 65.410156 45.902344 65.507812 45.929688 65.628906 L 45.988281 65.921875 C 46.015625 66.042969 46.023438 66.148438 46.015625 66.238281 Z M 45.730469 65.667969 C 45.710938 65.578125 45.6875 65.5 45.660156 65.441406 C 45.628906 65.378906 45.597656 65.332031 45.558594 65.296875 C 45.523438 65.261719 45.480469 65.238281 45.433594 65.230469 C 45.390625 65.21875 45.34375 65.21875 45.292969 65.230469 C 45.242188 65.238281 45.195312 65.257812 45.160156 65.285156 C 45.121094 65.3125 45.09375 65.347656 45.070312 65.394531 C 45.050781 65.441406 45.039062 65.5 45.035156 65.566406 C 45.035156 65.636719 45.042969 65.714844 45.0625 65.804688 L 45.121094 66.097656 C 45.140625 66.191406 45.164062 66.265625 45.191406 66.328125 C 45.222656 66.390625 45.253906 66.4375 45.292969 66.472656 C 45.332031 66.507812 45.371094 66.527344 45.417969 66.539062 C 45.460938 66.550781 45.507812 66.550781 45.558594 66.539062 C 45.609375 66.527344 45.65625 66.511719 45.691406 66.484375 C 45.730469 66.457031 45.757812 66.417969 45.78125 66.371094 C 45.800781 66.324219 45.8125 66.269531 45.816406 66.203125 C 45.816406 66.132812 45.808594 66.054688 45.789062 65.960938 Z M 45.730469 65.667969 "/>
<path style=" stroke:none;fill-rule:nonzero;fill:rgb(100%,100%,100%);fill-opacity:1;" d="M 47.335938 65.96875 C 47.328125 66.058594 47.308594 66.136719 47.269531 66.199219 C 47.234375 66.265625 47.1875 66.316406 47.128906 66.355469 C 47.066406 66.394531 46.996094 66.421875 46.914062 66.4375 C 46.832031 66.453125 46.753906 66.457031 46.683594 66.445312 C 46.609375 66.433594 46.546875 66.40625 46.488281 66.359375 C 46.429688 66.316406 46.378906 66.253906 46.339844 66.171875 C 46.296875 66.09375 46.261719 65.992188 46.238281 65.871094 L 46.175781 65.578125 C 46.152344 65.457031 46.144531 65.351562 46.152344 65.261719 C 46.160156 65.171875 46.179688 65.09375 46.214844 65.03125 C 46.25 64.964844 46.296875 64.914062 46.359375 64.875 C 46.421875 64.835938 46.492188 64.808594 46.574219 64.792969 C 46.660156 64.777344 46.734375 64.773438 46.804688 64.785156 C 46.875 64.796875 46.941406 64.824219 47 64.871094 C 47.054688 64.914062 47.105469 64.976562 47.148438 65.058594 C 47.191406 65.140625 47.222656 65.238281 47.25 65.359375 L 47.308594 65.652344 C 47.332031 65.773438 47.34375 65.878906 47.335938 65.96875 Z M 47.050781 65.398438 C 47.03125 65.308594 47.007812 65.234375 46.976562 65.171875 C 46.949219 65.109375 46.914062 65.0625 46.878906 65.027344 C 46.839844 64.992188 46.800781 64.96875 46.753906 64.960938 C 46.710938 64.949219 46.660156 64.949219 46.609375 64.960938 C 46.558594 64.96875 46.515625 64.988281 46.480469 65.015625 C 46.441406 65.042969 46.410156 65.082031 46.390625 65.128906 C 46.371094 65.171875 46.359375 65.230469 46.355469 65.296875 C 46.355469 65.367188 46.363281 65.445312 46.378906 65.535156 L 46.441406 65.832031 C 46.460938 65.921875 46.484375 65.996094 46.511719 66.058594 C 46.542969 66.121094 46.574219 66.167969 46.613281 66.203125 C 46.648438 66.238281 46.691406 66.261719 46.734375 66.269531 C 46.78125 66.28125 46.828125 66.28125 46.878906 66.269531 C 46.929688 66.261719 46.976562 66.242188 47.011719 66.214844 C 47.050781 66.1875 47.078125 66.148438 47.097656 66.105469 C 47.121094 66.058594 47.132812 66 47.132812 65.933594 C 47.136719 65.863281 47.128906 65.785156 47.109375 65.695312 Z M 47.050781 65.398438 "/>
<path style=" stroke:none;fill-rule:nonzero;fill:rgb(100%,100%,100%);fill-opacity:1;" d="M 48.460938 64.8125 C 48.480469 64.898438 48.472656 64.976562 48.441406 65.050781 C 48.410156 65.121094 48.351562 65.203125 48.261719 65.292969 L 48.082031 65.476562 C 48.027344 65.527344 47.988281 65.578125 47.953125 65.621094 C 47.921875 65.664062 47.898438 65.707031 47.882812 65.746094 C 47.867188 65.789062 47.859375 65.828125 47.859375 65.867188 C 47.855469 65.910156 47.859375 65.953125 47.871094 66 L 47.878906 66.046875 L 48.617188 65.894531 C 48.628906 65.894531 48.636719 65.894531 48.648438 65.898438 C 48.65625 65.90625 48.664062 65.914062 48.667969 65.925781 L 48.6875 66.019531 C 48.6875 66.03125 48.6875 66.042969 48.679688 66.050781 C 48.671875 66.058594 48.664062 66.066406 48.652344 66.066406 L 47.785156 66.246094 C 47.773438 66.246094 47.765625 66.246094 47.753906 66.238281 C 47.742188 66.230469 47.738281 66.222656 47.734375 66.210938 L 47.699219 66.035156 C 47.675781 65.921875 47.679688 65.816406 47.710938 65.710938 C 47.746094 65.605469 47.8125 65.5 47.917969 65.398438 L 48.105469 65.203125 C 48.144531 65.164062 48.175781 65.128906 48.203125 65.101562 C 48.226562 65.074219 48.246094 65.042969 48.257812 65.019531 C 48.269531 64.992188 48.277344 64.96875 48.277344 64.941406 C 48.277344 64.914062 48.277344 64.886719 48.269531 64.855469 C 48.253906 64.777344 48.21875 64.726562 48.160156 64.699219 C 48.101562 64.675781 48.015625 64.675781 47.898438 64.699219 C 47.839844 64.710938 47.777344 64.726562 47.707031 64.746094 C 47.640625 64.765625 47.578125 64.789062 47.515625 64.808594 L 47.507812 64.8125 C 47.484375 64.816406 47.472656 64.804688 47.464844 64.777344 L 47.449219 64.703125 C 47.449219 64.691406 47.449219 64.679688 47.457031 64.671875 C 47.464844 64.664062 47.472656 64.660156 47.484375 64.652344 C 47.535156 64.628906 47.59375 64.605469 47.664062 64.582031 C 47.730469 64.5625 47.796875 64.542969 47.863281 64.53125 C 48.039062 64.496094 48.175781 64.5 48.273438 64.542969 C 48.371094 64.589844 48.433594 64.679688 48.460938 64.8125 Z M 48.460938 64.8125 "/>
<path style=" stroke:none;fill-rule:nonzero;fill:rgb(100%,100%,100%);fill-opacity:1;" d="M 49.6875 65.84375 C 49.683594 65.851562 49.675781 65.859375 49.664062 65.863281 L 49.542969 65.886719 C 49.53125 65.886719 49.519531 65.886719 49.511719 65.878906 C 49.503906 65.871094 49.496094 65.863281 49.496094 65.851562 L 49.214844 64.484375 L 48.957031 64.664062 C 48.949219 64.667969 48.9375 64.671875 48.929688 64.675781 C 48.917969 64.675781 48.910156 64.671875 48.90625 64.65625 L 48.882812 64.542969 C 48.882812 64.535156 48.882812 64.53125 48.886719 64.527344 C 48.886719 64.523438 48.894531 64.515625 48.898438 64.511719 L 49.195312 64.289062 C 49.210938 64.277344 49.226562 64.269531 49.238281 64.265625 L 49.328125 64.246094 C 49.339844 64.246094 49.351562 64.246094 49.359375 64.253906 C 49.371094 64.257812 49.375 64.269531 49.378906 64.28125 L 49.691406 65.808594 C 49.695312 65.820312 49.695312 65.832031 49.6875 65.84375 Z M 49.6875 65.84375 "/>
<path style=" stroke:none;fill-rule:nonzero;fill:rgb(100%,100%,100%);fill-opacity:1;" d="M 52.476562 64.921875 C 52.472656 65.011719 52.449219 65.089844 52.414062 65.152344 C 52.378906 65.214844 52.332031 65.265625 52.269531 65.304688 C 52.210938 65.34375 52.140625 65.371094 52.054688 65.390625 C 51.972656 65.40625 51.894531 65.410156 51.824219 65.398438 C 51.753906 65.386719 51.6875 65.355469 51.632812 65.3125 C 51.574219 65.265625 51.523438 65.203125 51.480469 65.125 C 51.4375 65.042969 51.40625 64.941406 51.382812 64.824219 L 51.320312 64.53125 C 51.296875 64.410156 51.289062 64.304688 51.292969 64.214844 C 51.300781 64.121094 51.324219 64.046875 51.359375 63.980469 C 51.394531 63.917969 51.441406 63.867188 51.503906 63.828125 C 51.5625 63.789062 51.636719 63.761719 51.71875 63.746094 C 51.800781 63.726562 51.878906 63.726562 51.949219 63.738281 C 52.019531 63.75 52.082031 63.777344 52.140625 63.820312 C 52.199219 63.867188 52.25 63.929688 52.292969 64.011719 C 52.332031 64.089844 52.367188 64.191406 52.390625 64.3125 L 52.453125 64.605469 C 52.476562 64.726562 52.484375 64.832031 52.476562 64.921875 Z M 52.191406 64.351562 C 52.175781 64.261719 52.152344 64.183594 52.121094 64.121094 C 52.09375 64.0625 52.058594 64.015625 52.023438 63.980469 C 51.984375 63.945312 51.941406 63.921875 51.898438 63.910156 C 51.851562 63.902344 51.804688 63.902344 51.753906 63.910156 C 51.703125 63.921875 51.660156 63.941406 51.621094 63.96875 C 51.585938 63.996094 51.554688 64.03125 51.535156 64.078125 C 51.515625 64.125 51.503906 64.183594 51.5 64.25 C 51.496094 64.316406 51.503906 64.398438 51.523438 64.488281 L 51.582031 64.78125 C 51.601562 64.871094 51.625 64.949219 51.65625 65.011719 C 51.683594 65.070312 51.71875 65.121094 51.753906 65.152344 C 51.792969 65.1875 51.835938 65.210938 51.878906 65.222656 C 51.925781 65.230469 51.972656 65.230469 52.023438 65.222656 C 52.074219 65.210938 52.117188 65.191406 52.15625 65.164062 C 52.191406 65.136719 52.222656 65.101562 52.242188 65.054688 C 52.261719 65.007812 52.273438 64.953125 52.277344 64.882812 C 52.28125 64.816406 52.273438 64.734375 52.253906 64.644531 Z M 52.191406 64.351562 "/>
<path style=" stroke:none;fill-rule:nonzero;fill:rgb(100%,100%,100%);fill-opacity:1;" d="M 53.757812 64.777344 C 53.742188 64.839844 53.714844 64.894531 53.675781 64.945312 C 53.636719 64.992188 53.585938 65.03125 53.523438 65.0625 C 53.460938 65.09375 53.386719 65.117188 53.308594 65.132812 C 53.238281 65.148438 53.171875 65.15625 53.109375 65.160156 C 53.042969 65.164062 52.984375 65.167969 52.929688 65.164062 C 52.917969 65.164062 52.90625 65.160156 52.898438 65.15625 C 52.890625 65.152344 52.882812 65.144531 52.878906 65.132812 L 52.863281 65.058594 C 52.859375 65.03125 52.871094 65.015625 52.894531 65.011719 L 52.902344 65.011719 C 52.96875 65.007812 53.035156 65 53.101562 64.992188 C 53.164062 64.984375 53.222656 64.976562 53.273438 64.964844 C 53.394531 64.941406 53.476562 64.902344 53.519531 64.84375 C 53.5625 64.785156 53.574219 64.703125 53.554688 64.597656 L 53.542969 64.554688 C 53.539062 64.523438 53.527344 64.496094 53.511719 64.464844 C 53.5 64.4375 53.480469 64.410156 53.453125 64.386719 C 53.429688 64.367188 53.398438 64.351562 53.363281 64.339844 C 53.328125 64.332031 53.285156 64.332031 53.234375 64.339844 L 52.835938 64.421875 C 52.808594 64.425781 52.792969 64.417969 52.789062 64.390625 L 52.773438 64.316406 C 52.765625 64.289062 52.777344 64.269531 52.804688 64.265625 L 53.203125 64.183594 C 53.253906 64.171875 53.296875 64.15625 53.324219 64.132812 C 53.355469 64.113281 53.378906 64.085938 53.390625 64.058594 C 53.402344 64.027344 53.410156 63.996094 53.410156 63.964844 C 53.414062 63.933594 53.410156 63.902344 53.402344 63.875 L 53.398438 63.84375 C 53.378906 63.753906 53.339844 63.695312 53.28125 63.664062 C 53.21875 63.632812 53.128906 63.632812 53.003906 63.65625 C 52.941406 63.667969 52.882812 63.683594 52.828125 63.703125 C 52.777344 63.71875 52.714844 63.742188 52.644531 63.761719 L 52.636719 63.765625 C 52.613281 63.769531 52.597656 63.761719 52.59375 63.734375 L 52.578125 63.660156 C 52.574219 63.648438 52.578125 63.636719 52.585938 63.628906 C 52.589844 63.621094 52.601562 63.613281 52.609375 63.609375 C 52.660156 63.585938 52.714844 63.5625 52.777344 63.542969 C 52.835938 63.519531 52.902344 63.503906 52.96875 63.488281 C 53.050781 63.472656 53.128906 63.464844 53.195312 63.464844 C 53.265625 63.464844 53.328125 63.476562 53.382812 63.5 C 53.4375 63.523438 53.484375 63.558594 53.519531 63.609375 C 53.558594 63.65625 53.582031 63.71875 53.601562 63.800781 L 53.605469 63.832031 C 53.621094 63.90625 53.617188 63.976562 53.59375 64.042969 C 53.574219 64.109375 53.53125 64.167969 53.46875 64.214844 C 53.511719 64.222656 53.550781 64.238281 53.582031 64.261719 C 53.613281 64.28125 53.640625 64.304688 53.660156 64.332031 C 53.683594 64.359375 53.703125 64.390625 53.714844 64.417969 C 53.730469 64.449219 53.738281 64.480469 53.746094 64.511719 L 53.753906 64.558594 C 53.773438 64.640625 53.773438 64.710938 53.757812 64.777344 Z M 53.757812 64.777344 "/>
<path style=" stroke:none;fill-rule:nonzero;fill:rgb(100%,100%,100%);fill-opacity:1;" d="M 55.078125 64.507812 C 55.0625 64.570312 55.035156 64.628906 54.996094 64.675781 C 54.957031 64.722656 54.902344 64.761719 54.839844 64.792969 C 54.777344 64.824219 54.707031 64.847656 54.628906 64.863281 C 54.558594 64.878906 54.492188 64.886719 54.429688 64.890625 C 54.363281 64.894531 54.304688 64.898438 54.25 64.894531 C 54.238281 64.894531 54.226562 64.894531 54.21875 64.886719 C 54.207031 64.882812 54.203125 64.875 54.199219 64.863281 L 54.183594 64.789062 C 54.179688 64.761719 54.191406 64.75 54.214844 64.742188 L 54.222656 64.742188 C 54.289062 64.738281 54.355469 64.730469 54.417969 64.722656 C 54.484375 64.71875 54.542969 64.707031 54.59375 64.699219 C 54.714844 64.671875 54.792969 64.632812 54.839844 64.574219 C 54.882812 64.515625 54.894531 64.433594 54.871094 64.328125 L 54.863281 64.285156 C 54.855469 64.253906 54.847656 64.226562 54.832031 64.195312 C 54.820312 64.167969 54.796875 64.140625 54.773438 64.121094 C 54.75 64.097656 54.71875 64.082031 54.683594 64.070312 C 54.644531 64.0625 54.601562 64.0625 54.554688 64.070312 L 54.15625 64.152344 C 54.128906 64.160156 54.113281 64.148438 54.105469 64.121094 L 54.089844 64.046875 C 54.085938 64.019531 54.097656 64 54.125 63.996094 L 54.523438 63.914062 C 54.574219 63.90625 54.613281 63.886719 54.644531 63.867188 C 54.675781 63.84375 54.695312 63.816406 54.710938 63.789062 C 54.722656 63.757812 54.730469 63.730469 54.730469 63.695312 C 54.730469 63.664062 54.730469 63.632812 54.722656 63.605469 L 54.71875 63.574219 C 54.699219 63.484375 54.660156 63.425781 54.601562 63.394531 C 54.539062 63.363281 54.449219 63.363281 54.324219 63.386719 C 54.261719 63.398438 54.203125 63.414062 54.148438 63.433594 C 54.09375 63.449219 54.035156 63.472656 53.964844 63.496094 L 53.957031 63.496094 C 53.933594 63.5 53.917969 63.492188 53.914062 63.464844 L 53.898438 63.390625 C 53.894531 63.378906 53.898438 63.371094 53.902344 63.359375 C 53.910156 63.351562 53.917969 63.34375 53.929688 63.339844 C 53.980469 63.316406 54.035156 63.292969 54.09375 63.273438 C 54.15625 63.25 54.21875 63.234375 54.289062 63.21875 C 54.371094 63.203125 54.445312 63.195312 54.515625 63.195312 C 54.585938 63.195312 54.648438 63.207031 54.703125 63.230469 C 54.757812 63.253906 54.800781 63.289062 54.839844 63.339844 C 54.875 63.386719 54.902344 63.453125 54.921875 63.53125 L 54.925781 63.5625 C 54.941406 63.636719 54.9375 63.707031 54.914062 63.773438 C 54.890625 63.839844 54.851562 63.898438 54.789062 63.945312 C 54.832031 63.957031 54.871094 63.972656 54.902344 63.992188 C 54.933594 64.011719 54.960938 64.035156 54.980469 64.0625 C 55.003906 64.089844 55.023438 64.121094 55.035156 64.148438 C 55.050781 64.179688 55.058594 64.210938 55.066406 64.242188 L 55.074219 64.289062 C 55.09375 64.371094 55.09375 64.441406 55.078125 64.507812 Z M 55.078125 64.507812 "/>
<path style=" stroke:none;fill-rule:nonzero;fill:rgb(100%,100%,100%);fill-opacity:1;" d="M 56.152344 64.523438 C 56.144531 64.535156 56.136719 64.542969 56.125 64.542969 L 56.003906 64.570312 C 55.992188 64.570312 55.984375 64.570312 55.972656 64.5625 C 55.964844 64.554688 55.960938 64.542969 55.957031 64.53125 L 55.675781 63.164062 L 55.421875 63.34375 C 55.410156 63.351562 55.402344 63.355469 55.394531 63.355469 C 55.378906 63.359375 55.371094 63.351562 55.367188 63.335938 L 55.347656 63.226562 C 55.34375 63.21875 55.34375 63.214844 55.347656 63.210938 C 55.351562 63.203125 55.355469 63.199219 55.363281 63.195312 L 55.660156 62.96875 C 55.675781 62.957031 55.6875 62.949219 55.703125 62.949219 L 55.792969 62.929688 C 55.804688 62.925781 55.8125 62.929688 55.824219 62.933594 C 55.832031 62.941406 55.839844 62.949219 55.839844 62.960938 L 56.15625 64.492188 C 56.160156 64.503906 56.15625 64.515625 56.152344 64.523438 Z M 56.152344 64.523438 "/>
<path style=" stroke:none;fill-rule:nonzero;fill:rgb(100%,100%,100%);fill-opacity:1;" d="M 58.960938 63.515625 L 58.773438 63.554688 L 58.851562 63.941406 C 58.855469 63.953125 58.851562 63.964844 58.847656 63.976562 C 58.84375 63.984375 58.835938 63.992188 58.824219 63.992188 L 58.695312 64.019531 C 58.683594 64.023438 58.671875 64.019531 58.664062 64.011719 C 58.65625 64.003906 58.652344 63.996094 58.648438 63.984375 L 58.570312 63.597656 L 57.941406 63.726562 C 57.90625 63.730469 57.882812 63.730469 57.867188 63.722656 C 57.851562 63.710938 57.839844 63.691406 57.835938 63.660156 L 57.816406 63.578125 C 57.8125 63.546875 57.8125 63.515625 57.828125 63.492188 L 58.285156 62.457031 C 58.289062 62.449219 58.296875 62.4375 58.300781 62.429688 C 58.308594 62.421875 58.324219 62.414062 58.339844 62.410156 L 58.472656 62.382812 C 58.507812 62.375 58.53125 62.386719 58.539062 62.417969 L 58.738281 63.390625 L 58.925781 63.351562 C 58.9375 63.347656 58.949219 63.347656 58.960938 63.355469 C 58.96875 63.359375 58.976562 63.371094 58.976562 63.382812 L 58.996094 63.46875 C 59 63.496094 58.988281 63.511719 58.960938 63.515625 Z M 58.386719 62.6875 C 58.382812 62.679688 58.378906 62.675781 58.375 62.675781 L 58.371094 62.675781 C 58.367188 62.679688 58.359375 62.683594 58.355469 62.695312 L 58 63.507812 C 57.996094 63.515625 57.996094 63.519531 57.996094 63.527344 C 58 63.535156 58.007812 63.539062 58.019531 63.535156 L 58.539062 63.429688 Z M 58.386719 62.6875 "/>
<path style=" stroke:none;fill-rule:nonzero;fill:rgb(100%,100%,100%);fill-opacity:1;" d="M 60.242188 63.355469 C 60.234375 63.441406 60.210938 63.515625 60.175781 63.578125 C 60.136719 63.640625 60.085938 63.691406 60.019531 63.730469 C 59.953125 63.765625 59.871094 63.796875 59.78125 63.816406 C 59.691406 63.832031 59.617188 63.84375 59.558594 63.847656 C 59.496094 63.851562 59.445312 63.855469 59.398438 63.855469 C 59.382812 63.855469 59.367188 63.851562 59.355469 63.847656 C 59.347656 63.84375 59.339844 63.835938 59.335938 63.824219 L 59.320312 63.738281 C 59.316406 63.722656 59.316406 63.714844 59.324219 63.707031 C 59.328125 63.695312 59.339844 63.691406 59.351562 63.691406 C 59.351562 63.6875 59.355469 63.6875 59.355469 63.6875 C 59.359375 63.691406 59.359375 63.691406 59.363281 63.6875 C 59.421875 63.691406 59.480469 63.6875 59.542969 63.679688 C 59.605469 63.671875 59.671875 63.660156 59.742188 63.648438 C 59.828125 63.628906 59.890625 63.605469 59.9375 63.570312 C 59.980469 63.539062 60.011719 63.496094 60.03125 63.449219 C 60.046875 63.402344 60.054688 63.347656 60.050781 63.289062 C 60.042969 63.226562 60.035156 63.160156 60.019531 63.089844 L 60.015625 63.066406 C 59.96875 63.085938 59.921875 63.105469 59.871094 63.125 C 59.820312 63.148438 59.761719 63.164062 59.695312 63.175781 C 59.625 63.191406 59.554688 63.199219 59.484375 63.199219 C 59.417969 63.195312 59.355469 63.183594 59.300781 63.160156 C 59.242188 63.132812 59.195312 63.09375 59.152344 63.042969 C 59.113281 62.988281 59.082031 62.917969 59.066406 62.832031 L 59.0625 62.820312 C 59.027344 62.648438 59.042969 62.503906 59.109375 62.390625 C 59.179688 62.273438 59.300781 62.199219 59.480469 62.160156 C 59.644531 62.128906 59.785156 62.152344 59.898438 62.230469 C 60.015625 62.3125 60.09375 62.457031 60.136719 62.671875 L 60.214844 63.050781 C 60.238281 63.167969 60.25 63.269531 60.242188 63.355469 Z M 59.941406 62.710938 C 59.921875 62.621094 59.902344 62.550781 59.875 62.492188 C 59.847656 62.4375 59.816406 62.394531 59.78125 62.367188 C 59.746094 62.339844 59.707031 62.320312 59.660156 62.316406 C 59.617188 62.308594 59.570312 62.3125 59.515625 62.320312 C 59.464844 62.332031 59.421875 62.347656 59.382812 62.371094 C 59.34375 62.390625 59.3125 62.421875 59.289062 62.457031 C 59.265625 62.492188 59.25 62.539062 59.246094 62.589844 C 59.238281 62.640625 59.242188 62.703125 59.257812 62.777344 L 59.261719 62.792969 C 59.273438 62.847656 59.292969 62.894531 59.320312 62.929688 C 59.34375 62.964844 59.378906 62.992188 59.414062 63.007812 C 59.449219 63.023438 59.488281 63.03125 59.53125 63.03125 C 59.574219 63.035156 59.617188 63.03125 59.660156 63.023438 C 59.6875 63.015625 59.714844 63.007812 59.746094 63 C 59.773438 62.992188 59.804688 62.984375 59.832031 62.972656 C 59.863281 62.964844 59.890625 62.953125 59.914062 62.945312 C 59.941406 62.933594 59.964844 62.921875 59.980469 62.914062 Z M 59.941406 62.710938 "/>
<path style=" stroke:none;fill-rule:nonzero;fill:rgb(100%,100%,100%);fill-opacity:1;" d="M 61.386719 62.179688 C 61.40625 62.265625 61.398438 62.34375 61.367188 62.414062 C 61.335938 62.488281 61.277344 62.566406 61.1875 62.65625 L 61.007812 62.839844 C 60.953125 62.894531 60.914062 62.941406 60.878906 62.984375 C 60.847656 63.027344 60.824219 63.070312 60.808594 63.109375 C 60.792969 63.152344 60.785156 63.191406 60.785156 63.234375 C 60.78125 63.273438 60.785156 63.316406 60.796875 63.363281 L 60.804688 63.410156 L 61.539062 63.261719 C 61.550781 63.257812 61.5625 63.261719 61.574219 63.265625 C 61.582031 63.269531 61.589844 63.277344 61.59375 63.289062 L 61.613281 63.382812 C 61.613281 63.394531 61.613281 63.40625 61.605469 63.414062 C 61.597656 63.425781 61.585938 63.429688 61.578125 63.433594 L 60.710938 63.609375 C 60.699219 63.609375 60.691406 63.609375 60.679688 63.601562 C 60.667969 63.597656 60.664062 63.589844 60.660156 63.578125 L 60.625 63.402344 C 60.601562 63.289062 60.605469 63.179688 60.636719 63.074219 C 60.671875 62.96875 60.738281 62.867188 60.839844 62.761719 L 61.03125 62.570312 C 61.070312 62.53125 61.101562 62.496094 61.128906 62.464844 C 61.152344 62.4375 61.171875 62.410156 61.183594 62.382812 C 61.195312 62.359375 61.203125 62.332031 61.203125 62.304688 C 61.203125 62.28125 61.203125 62.25 61.195312 62.21875 C 61.179688 62.140625 61.140625 62.089844 61.085938 62.0625 C 61.027344 62.039062 60.941406 62.039062 60.820312 62.0625 C 60.765625 62.074219 60.703125 62.089844 60.632812 62.109375 C 60.566406 62.132812 60.503906 62.152344 60.441406 62.171875 L 60.433594 62.175781 C 60.410156 62.179688 60.398438 62.167969 60.390625 62.144531 L 60.375 62.066406 C 60.371094 62.054688 60.375 62.046875 60.382812 62.039062 C 60.386719 62.03125 60.398438 62.023438 60.410156 62.019531 C 60.460938 61.992188 60.519531 61.96875 60.589844 61.945312 C 60.65625 61.925781 60.722656 61.910156 60.789062 61.894531 C 60.964844 61.859375 61.101562 61.863281 61.199219 61.910156 C 61.296875 61.953125 61.359375 62.042969 61.386719 62.179688 Z M 61.386719 62.179688 "/>
<path style=" stroke:none;fill-rule:nonzero;fill:rgb(100%,100%,100%);fill-opacity:1;" d="M 62.613281 63.207031 C 62.609375 63.21875 62.601562 63.222656 62.589844 63.226562 L 62.46875 63.25 C 62.457031 63.253906 62.445312 63.25 62.4375 63.242188 C 62.429688 63.238281 62.421875 63.226562 62.421875 63.214844 L 62.140625 61.847656 L 61.882812 62.027344 C 61.875 62.035156 61.863281 62.039062 61.855469 62.039062 C 61.84375 62.042969 61.835938 62.035156 61.832031 62.019531 L 61.808594 61.910156 C 61.808594 61.902344 61.808594 61.894531 61.8125 61.890625 C 61.8125 61.886719 61.816406 61.882812 61.824219 61.875 L 62.121094 61.652344 C 62.136719 61.640625 62.152344 61.632812 62.164062 61.628906 L 62.253906 61.613281 C 62.265625 61.609375 62.277344 61.613281 62.285156 61.617188 C 62.296875 61.625 62.300781 61.632812 62.304688 61.644531 L 62.617188 63.175781 C 62.621094 63.1875 62.621094 63.199219 62.613281 63.207031 Z M 62.613281 63.207031 "/>
<path style=" stroke:none;fill-rule:nonzero;fill:rgb(100%,100%,100%);fill-opacity:1;" d="M 65.210938 61.398438 C 65.226562 61.484375 65.222656 61.5625 65.191406 61.636719 C 65.160156 61.707031 65.101562 61.789062 65.011719 61.875 L 64.832031 62.058594 C 64.777344 62.113281 64.734375 62.160156 64.703125 62.207031 C 64.671875 62.25 64.648438 62.289062 64.632812 62.332031 C 64.617188 62.371094 64.609375 62.414062 64.609375 62.453125 C 64.605469 62.492188 64.609375 62.539062 64.621094 62.585938 L 64.628906 62.632812 L 65.363281 62.480469 C 65.375 62.480469 65.386719 62.480469 65.398438 62.484375 C 65.40625 62.488281 65.414062 62.496094 65.414062 62.507812 L 65.433594 62.605469 C 65.4375 62.617188 65.433594 62.628906 65.429688 62.636719 C 65.421875 62.644531 65.410156 62.652344 65.398438 62.652344 L 64.535156 62.828125 C 64.523438 62.832031 64.511719 62.828125 64.503906 62.824219 C 64.492188 62.816406 64.484375 62.808594 64.484375 62.796875 L 64.449219 62.621094 C 64.425781 62.507812 64.429688 62.398438 64.460938 62.296875 C 64.492188 62.191406 64.5625 62.085938 64.664062 61.980469 L 64.855469 61.789062 C 64.894531 61.75 64.925781 61.714844 64.949219 61.6875 C 64.976562 61.65625 64.992188 61.628906 65.003906 61.605469 C 65.019531 61.578125 65.023438 61.550781 65.027344 61.527344 C 65.027344 61.5 65.023438 61.472656 65.019531 61.441406 C 65.003906 61.363281 64.964844 61.308594 64.910156 61.285156 C 64.851562 61.257812 64.761719 61.257812 64.644531 61.28125 C 64.589844 61.292969 64.527344 61.3125 64.457031 61.332031 C 64.390625 61.351562 64.324219 61.375 64.265625 61.394531 L 64.257812 61.394531 C 64.234375 61.402344 64.21875 61.390625 64.214844 61.363281 L 64.199219 61.285156 C 64.195312 61.273438 64.199219 61.265625 64.207031 61.257812 C 64.210938 61.25 64.222656 61.246094 64.230469 61.238281 C 64.285156 61.214844 64.34375 61.1875 64.410156 61.167969 C 64.480469 61.144531 64.546875 61.128906 64.613281 61.117188 C 64.789062 61.078125 64.925781 61.085938 65.023438 61.128906 C 65.121094 61.175781 65.183594 61.265625 65.210938 61.398438 Z M 65.210938 61.398438 "/>
<path style=" stroke:none;fill-rule:nonzero;fill:rgb(100%,100%,100%);fill-opacity:1;" d="M 66.722656 62.015625 C 66.714844 62.105469 66.695312 62.183594 66.660156 62.246094 C 66.625 62.3125 66.578125 62.363281 66.515625 62.402344 C 66.457031 62.441406 66.382812 62.46875 66.300781 62.484375 C 66.21875 62.503906 66.140625 62.503906 66.070312 62.492188 C 66 62.480469 65.933594 62.453125 65.875 62.40625 C 65.820312 62.363281 65.769531 62.300781 65.726562 62.21875 C 65.683594 62.140625 65.652344 62.039062 65.625 61.917969 L 65.566406 61.625 C 65.542969 61.503906 65.53125 61.398438 65.539062 61.308594 C 65.546875 61.21875 65.566406 61.140625 65.601562 61.078125 C 65.640625 61.011719 65.6875 60.960938 65.746094 60.921875 C 65.808594 60.882812 65.878906 60.855469 65.964844 60.839844 C 66.046875 60.824219 66.125 60.820312 66.195312 60.832031 C 66.265625 60.84375 66.328125 60.871094 66.386719 60.917969 C 66.445312 60.960938 66.492188 61.023438 66.535156 61.105469 C 66.578125 61.1875 66.613281 61.285156 66.636719 61.40625 L 66.695312 61.699219 C 66.722656 61.820312 66.730469 61.925781 66.722656 62.015625 Z M 66.4375 61.445312 C 66.417969 61.355469 66.394531 61.28125 66.367188 61.21875 C 66.335938 61.15625 66.304688 61.109375 66.265625 61.074219 C 66.230469 61.039062 66.1875 61.015625 66.144531 61.007812 C 66.097656 60.996094 66.050781 60.996094 66 61.007812 C 65.949219 61.015625 65.902344 61.035156 65.867188 61.0625 C 65.828125 61.089844 65.800781 61.128906 65.78125 61.175781 C 65.757812 61.21875 65.746094 61.277344 65.746094 61.34375 C 65.742188 61.414062 65.75 61.492188 65.769531 61.582031 L 65.828125 61.878906 C 65.847656 61.96875 65.871094 62.042969 65.902344 62.105469 C 65.929688 62.167969 65.964844 62.214844 66 62.25 C 66.039062 62.285156 66.078125 62.308594 66.125 62.316406 C 66.167969 62.328125 66.21875 62.328125 66.269531 62.316406 C 66.320312 62.308594 66.363281 62.289062 66.402344 62.261719 C 66.4375 62.234375 66.46875 62.195312 66.488281 62.152344 C 66.507812 62.105469 66.519531 62.046875 66.523438 61.980469 C 66.523438 61.910156 66.515625 61.832031 66.5 61.742188 Z M 66.4375 61.445312 "/>
<path style=" stroke:none;fill-rule:nonzero;fill:rgb(100%,100%,100%);fill-opacity:1;" d="M 67.847656 60.859375 C 67.867188 60.945312 67.859375 61.023438 67.828125 61.097656 C 67.800781 61.167969 67.738281 61.25 67.652344 61.339844 L 67.46875 61.523438 C 67.417969 61.574219 67.375 61.625 67.34375 61.667969 C 67.3125 61.710938 67.289062 61.753906 67.273438 61.792969 C 67.257812 61.835938 67.25 61.875 67.246094 61.914062 C 67.246094 61.957031 67.25 62 67.257812 62.046875 L 67.269531 62.09375 L 68.003906 61.941406 C 68.015625 61.941406 68.027344 61.941406 68.035156 61.945312 C 68.046875 61.953125 68.050781 61.960938 68.054688 61.972656 L 68.074219 62.066406 C 68.078125 62.078125 68.074219 62.089844 68.066406 62.097656 C 68.058594 62.105469 68.050781 62.113281 68.039062 62.113281 L 67.175781 62.292969 C 67.164062 62.292969 67.152344 62.292969 67.140625 62.285156 C 67.132812 62.28125 67.125 62.269531 67.125 62.257812 L 67.085938 62.082031 C 67.0625 61.96875 67.070312 61.863281 67.101562 61.757812 C 67.132812 61.652344 67.199219 61.546875 67.304688 61.445312 L 67.496094 61.25 C 67.535156 61.210938 67.566406 61.175781 67.589844 61.148438 C 67.613281 61.121094 67.632812 61.09375 67.644531 61.066406 C 67.65625 61.039062 67.664062 61.015625 67.664062 60.988281 C 67.667969 60.960938 67.664062 60.933594 67.65625 60.902344 C 67.640625 60.824219 67.605469 60.773438 67.546875 60.746094 C 67.492188 60.722656 67.402344 60.722656 67.285156 60.746094 C 67.226562 60.757812 67.164062 60.773438 67.097656 60.792969 C 67.027344 60.8125 66.964844 60.835938 66.90625 60.855469 L 66.898438 60.859375 C 66.875 60.863281 66.859375 60.851562 66.855469 60.824219 L 66.839844 60.75 C 66.835938 60.738281 66.835938 60.726562 66.84375 60.71875 C 66.851562 60.710938 66.859375 60.707031 66.871094 60.699219 C 66.921875 60.675781 66.984375 60.652344 67.050781 60.628906 C 67.117188 60.609375 67.183594 60.589844 67.25 60.578125 C 67.429688 60.542969 67.566406 60.546875 67.664062 60.589844 C 67.757812 60.636719 67.820312 60.726562 67.847656 60.859375 Z M 67.847656 60.859375 "/>
<path style=" stroke:none;fill-rule:nonzero;fill:rgb(100%,100%,100%);fill-opacity:1;" d="M 69.078125 61.890625 C 69.070312 61.898438 69.0625 61.90625 69.050781 61.910156 L 68.929688 61.933594 C 68.917969 61.933594 68.910156 61.933594 68.898438 61.925781 C 68.890625 61.917969 68.886719 61.910156 68.882812 61.898438 L 68.601562 60.53125 L 68.347656 60.710938 C 68.335938 60.714844 68.328125 60.71875 68.320312 60.722656 C 68.304688 60.726562 68.296875 60.71875 68.292969 60.703125 L 68.269531 60.589844 C 68.269531 60.582031 68.269531 60.578125 68.273438 60.574219 C 68.277344 60.570312 68.28125 60.5625 68.289062 60.558594 L 68.585938 60.335938 C 68.601562 60.324219 68.613281 60.316406 68.628906 60.3125 L 68.71875 60.292969 C 68.730469 60.292969 68.738281 60.292969 68.75 60.300781 C 68.757812 60.304688 68.765625 60.316406 68.765625 60.328125 L 69.082031 61.855469 C 69.082031 61.867188 69.082031 61.878906 69.078125 61.890625 Z M 69.078125 61.890625 "/>
<path style=" stroke:none;fill-rule:nonzero;fill:rgb(100%,100%,100%);fill-opacity:1;" d="M 45.378906 67.9375 L 49.832031 67.03125 L 50.09375 68.300781 L 45.640625 69.210938 Z M 45.378906 67.9375 "/>
<path style=" stroke:none;fill-rule:nonzero;fill:rgb(100%,100%,100%);fill-opacity:1;" d="M 62.867188 51.402344 L 67.320312 50.496094 L 67.476562 51.257812 L 63.023438 52.164062 Z M 62.867188 51.402344 "/>
<path style=" stroke:none;fill-rule:nonzero;fill:rgb(100%,100%,100%);fill-opacity:1;" d="M 59.652344 53.476562 L 67.597656 51.855469 L 67.757812 52.621094 L 59.808594 54.242188 Z M 59.652344 53.476562 "/>
<path style=" stroke:none;fill-rule:nonzero;fill:rgb(100%,100%,100%);fill-opacity:1;" d="M 45.757812 69.789062 L 65.261719 65.808594 L 65.523438 67.082031 L 46.019531 71.058594 Z M 45.757812 69.789062 "/>
<path style=" stroke:none;fill-rule:nonzero;fill:rgb(100%,100%,100%);fill-opacity:1;" d="M 68.597656 65.792969 C 68.671875 66.144531 68.445312 66.488281 68.089844 66.558594 C 67.738281 66.632812 67.394531 66.40625 67.324219 66.054688 C 67.25 65.703125 67.476562 65.359375 67.832031 65.289062 C 68.183594 65.214844 68.527344 65.441406 68.597656 65.792969 Z M 68.597656 65.792969 "/>
<path style=" stroke:none;fill-rule:nonzero;fill:rgb(100%,100%,100%);fill-opacity:1;" d="M 70.382812 65.429688 C 70.457031 65.78125 70.230469 66.125 69.875 66.195312 C 69.523438 66.265625 69.179688 66.039062 69.109375 65.691406 C 69.035156 65.339844 69.265625 64.996094 69.617188 64.925781 C 69.96875 64.851562 70.3125 65.078125 70.382812 65.429688 Z M 70.382812 65.429688 "/>
<path style=" stroke:none;fill-rule:nonzero;fill:rgb(99.607843%,80%,52.54902%);fill-opacity:1;" d="M 46.753906 55.632812 L 47.207031 57.84375 C 47.230469 57.957031 47.160156 58.066406 47.046875 58.089844 L 43.25 58.863281 C 43.136719 58.886719 43.027344 58.8125 43.003906 58.703125 L 42.550781 56.492188 C 42.527344 56.378906 42.597656 56.269531 42.710938 56.246094 L 46.507812 55.46875 C 46.621094 55.449219 46.730469 55.519531 46.753906 55.632812 Z M 46.753906 55.632812 "/>
<path style=" stroke:none;fill-rule:nonzero;fill:rgb(93.72549%,63.921569%,28.235294%);fill-opacity:1;" d="M 44.738281 57.074219 L 42.753906 57.476562 L 42.730469 57.375 L 44.613281 56.992188 L 44.476562 56.328125 L 44.578125 56.304688 Z M 44.738281 57.074219 "/>
<path style=" stroke:none;fill-rule:nonzero;fill:rgb(93.72549%,63.921569%,28.235294%);fill-opacity:1;" d="M 45.367188 58.433594 L 45.265625 58.453125 L 45.054688 57.425781 L 47.039062 57.019531 L 47.0625 57.125 L 45.179688 57.507812 Z M 45.367188 58.433594 "/>
<path style=" stroke:none;fill-rule:nonzero;fill:rgb(93.72549%,63.921569%,28.235294%);fill-opacity:1;" d="M 45.277344 55.722656 L 45.382812 55.699219 L 45.609375 56.800781 L 45.503906 56.824219 Z M 45.277344 55.722656 "/>
<path style=" stroke:none;fill-rule:nonzero;fill:rgb(93.72549%,63.921569%,28.235294%);fill-opacity:1;" d="M 45.445312 56.273438 L 46.832031 55.992188 L 46.851562 56.09375 L 45.46875 56.378906 Z M 45.445312 56.273438 "/>
<path style=" stroke:none;fill-rule:nonzero;fill:rgb(93.72549%,63.921569%,28.235294%);fill-opacity:1;" d="M 44.109375 58.207031 L 44.003906 58.226562 L 43.929688 57.871094 L 42.878906 58.085938 L 42.855469 57.984375 L 44.011719 57.746094 Z M 44.109375 58.207031 "/>
<path style=" stroke:none;fill-rule:nonzero;fill:rgb(11.372549%,11.372549%,10.588235%);fill-opacity:1;" d="M 71.546875 67.070312 L 45.242188 72.433594 C 44.769531 72.53125 44.304688 72.222656 44.207031 71.75 L 40.941406 55.851562 C 40.84375 55.378906 41.152344 54.914062 41.625 54.816406 L 67.929688 49.453125 C 68.402344 49.359375 68.867188 49.664062 68.964844 50.136719 L 72.230469 66.039062 C 72.328125 66.511719 72.023438 66.972656 71.546875 67.070312 Z M 41.660156 54.972656 C 41.269531 55.050781 41.019531 55.429688 41.097656 55.816406 L 44.363281 71.71875 C 44.445312 72.105469 44.824219 72.355469 45.210938 72.277344 L 71.515625 66.914062 C 71.902344 66.835938 72.15625 66.457031 72.074219 66.070312 L 68.808594 50.167969 C 68.730469 49.78125 68.351562 49.53125 67.960938 49.609375 Z M 41.660156 54.972656 "/>
<path style=" stroke:none;fill-rule:nonzero;fill:rgb(100%,100%,100%);fill-opacity:1;" d="M 109.035156 57 C 105.984375 53.960938 101.042969 53.960938 97.992188 57 C 94.945312 60.039062 94.945312 64.964844 97.992188 68 C 101.042969 71.039062 105.984375 71.039062 109.035156 68 C 112.082031 64.964844 112.082031 60.039062 109.035156 57 Z M 109.035156 57 "/>
<path style=" stroke:none;fill-rule:nonzero;fill:rgb(35.294118%,70.196078%,74.901961%);fill-opacity:1;" d="M 102.0625 66.464844 L 99.121094 62.382812 C 98.980469 62.191406 99.023438 61.921875 99.21875 61.78125 C 99.414062 61.644531 99.683594 61.6875 99.820312 61.878906 L 102.097656 65.03125 L 107.78125 57.84375 C 107.929688 57.65625 108.199219 57.625 108.386719 57.773438 C 108.574219 57.921875 108.609375 58.191406 108.460938 58.378906 Z M 102.0625 66.464844 "/>
<path style=" stroke:none;fill-rule:nonzero;fill:rgb(100%,100%,100%);fill-opacity:1;" d="M 106.175781 68.886719 L 109.398438 72.058594 L 107.988281 67.023438 Z M 106.175781 68.886719 "/>
<path style=" stroke:none;fill-rule:nonzero;fill:rgb(100%,100%,100%);fill-opacity:1;" d="M 97.121094 76.257812 L 110.472656 76.257812 L 110.472656 76.917969 L 97.121094 76.917969 Z M 97.121094 76.257812 "/>
<path style=" stroke:none;fill-rule:nonzero;fill:rgb(100%,100%,100%);fill-opacity:1;" d="M 97.121094 78.996094 L 110.472656 78.996094 L 110.472656 79.65625 L 97.121094 79.65625 Z M 97.121094 78.996094 "/>
<path style=" stroke:none;fill-rule:nonzero;fill:rgb(37.647059%,58.431373%,67.058824%);fill-opacity:1;" d="M 68.972656 40.125 C 68.300781 40.070312 67.648438 39.886719 67.03125 39.582031 L 67.195312 39.257812 C 67.765625 39.542969 68.375 39.710938 69.003906 39.765625 Z M 70.976562 39.96875 L 70.890625 39.617188 C 71.507812 39.464844 72.089844 39.207031 72.609375 38.851562 L 72.816406 39.152344 C 72.257812 39.53125 71.636719 39.808594 70.976562 39.96875 Z M 65.40625 38.40625 C 64.953125 37.964844 64.539062 37.4375 64.167969 36.84375 L 64.476562 36.652344 C 64.832031 37.222656 65.230469 37.726562 65.660156 38.148438 Z M 74.257812 37.753906 L 73.964844 37.539062 C 74.332031 37.039062 74.625 36.476562 74.835938 35.859375 L 75.179688 35.976562 C 74.957031 36.628906 74.644531 37.226562 74.257812 37.753906 Z M 45.945312 37.027344 L 45.582031 37.003906 C 45.625 36.351562 45.707031 35.691406 45.828125 35.042969 L 46.183594 35.109375 C 46.066406 35.746094 45.988281 36.390625 45.945312 37.027344 Z M 63.277344 35.070312 C 63.039062 34.46875 62.84375 33.835938 62.691406 33.179688 L 63.046875 33.097656 C 63.195312 33.734375 63.386719 34.355469 63.617188 34.9375 Z M 75.566406 34.019531 L 75.203125 33.996094 C 75.214844 33.824219 75.222656 33.648438 75.222656 33.472656 C 75.222656 33.019531 75.183594 32.554688 75.105469 32.09375 L 75.464844 32.03125 C 75.542969 32.515625 75.585938 33 75.585938 33.472656 C 75.585938 33.65625 75.578125 33.839844 75.566406 34.019531 Z M 46.644531 33.234375 L 46.296875 33.128906 C 46.488281 32.503906 46.71875 31.878906 46.980469 31.277344 L 47.316406 31.417969 C 47.058594 32.011719 46.832031 32.621094 46.644531 33.234375 Z M 62.382812 31.230469 C 62.3125 30.566406 62.261719 29.910156 62.234375 29.269531 L 62.597656 29.253906 C 62.625 29.886719 62.675781 30.539062 62.742188 31.191406 Z M 74.59375 30.25 C 74.363281 29.667969 74.074219 29.089844 73.730469 28.535156 L 74.039062 28.34375 C 74.394531 28.917969 74.695312 29.515625 74.929688 30.117188 Z M 48.183594 29.691406 L 47.867188 29.511719 C 48.195312 28.941406 48.558594 28.382812 48.945312 27.855469 L 49.238281 28.066406 C 48.859375 28.585938 48.503906 29.132812 48.183594 29.691406 Z M 107.503906 29.683594 L 107.15625 29.574219 C 107.355469 28.949219 107.511719 28.316406 107.617188 27.699219 L 107.976562 27.761719 C 107.867188 28.394531 107.707031 29.042969 107.503906 29.683594 Z M 62.578125 27.316406 L 62.214844 27.304688 C 62.230469 26.640625 62.273438 25.980469 62.339844 25.34375 L 62.703125 25.382812 C 62.636719 26.007812 62.59375 26.660156 62.578125 27.316406 Z M 72.589844 26.984375 C 72.179688 26.511719 71.722656 26.050781 71.230469 25.613281 L 71.46875 25.34375 C 71.976562 25.789062 72.445312 26.261719 72.863281 26.75 Z M 50.46875 26.570312 L 50.199219 26.328125 C 50.648438 25.839844 51.125 25.378906 51.621094 24.949219 L 51.859375 25.226562 C 51.375 25.644531 50.90625 26.097656 50.46875 26.570312 Z M 108.164062 25.792969 L 107.800781 25.785156 C 107.800781 25.714844 107.804688 25.640625 107.804688 25.570312 C 107.804688 25 107.761719 24.429688 107.679688 23.871094 L 108.039062 23.820312 C 108.125 24.394531 108.167969 24.984375 108.167969 25.570312 C 108.167969 25.644531 108.167969 25.71875 108.164062 25.792969 Z M 69.703125 24.425781 C 69.253906 24.113281 68.769531 23.808594 68.273438 23.523438 C 68.199219 23.484375 68.128906 23.441406 68.054688 23.402344 L 68.230469 23.085938 C 68.304688 23.125 68.378906 23.167969 68.453125 23.210938 C 68.960938 23.5 69.453125 23.808594 69.910156 24.125 Z M 53.398438 24.050781 L 53.195312 23.75 C 53.746094 23.378906 54.320312 23.042969 54.902344 22.75 L 55.066406 23.074219 C 54.496094 23.359375 53.9375 23.6875 53.398438 24.050781 Z M 62.988281 23.46875 L 62.628906 23.398438 C 62.757812 22.746094 62.914062 22.101562 63.101562 21.488281 L 63.449219 21.589844 C 63.269531 22.195312 63.113281 22.828125 62.988281 23.46875 Z M 66.304688 22.574219 C 65.703125 22.335938 65.082031 22.132812 64.464844 21.980469 L 64.554688 21.628906 C 65.1875 21.785156 65.820312 21.992188 66.441406 22.238281 Z M 56.847656 22.324219 L 56.730469 21.984375 C 57.359375 21.765625 58.003906 21.59375 58.644531 21.46875 L 58.714844 21.824219 C 58.089844 21.945312 57.460938 22.113281 56.847656 22.324219 Z M 107.246094 22 C 107.054688 21.398438 106.8125 20.800781 106.519531 20.222656 L 106.847656 20.058594 C 107.144531 20.65625 107.394531 21.273438 107.59375 21.890625 Z M 62.5625 21.648438 C 61.921875 21.585938 61.273438 21.566406 60.632812 21.597656 L 60.613281 21.234375 C 61.273438 21.203125 61.941406 21.222656 62.597656 21.289062 Z M 64.101562 19.773438 L 63.765625 19.632812 C 64.023438 19.023438 64.316406 18.429688 64.636719 17.863281 L 64.953125 18.039062 C 64.640625 18.59375 64.355469 19.175781 64.101562 19.773438 Z M 105.539062 18.5625 C 105.179688 18.046875 104.78125 17.535156 104.34375 17.046875 L 104.613281 16.804688 C 105.0625 17.308594 105.472656 17.828125 105.835938 18.359375 Z M 66.003906 16.421875 L 65.710938 16.207031 C 66.097656 15.679688 66.527344 15.167969 66.976562 14.6875 L 67.242188 14.9375 C 66.800781 15.40625 66.382812 15.902344 66.003906 16.421875 Z M 102.976562 15.671875 C 102.511719 15.25 102.003906 14.835938 101.476562 14.441406 L 101.695312 14.152344 C 102.234375 14.554688 102.746094 14.972656 103.222656 15.40625 Z M 68.648438 13.613281 L 68.414062 13.335938 C 68.914062 12.917969 69.445312 12.519531 70 12.152344 L 70.199219 12.457031 C 69.660156 12.816406 69.136719 13.203125 68.648438 13.613281 Z M 99.871094 13.347656 C 99.332031 13.011719 98.765625 12.6875 98.183594 12.386719 L 98.351562 12.0625 C 98.941406 12.371094 99.519531 12.699219 100.066406 13.042969 Z M 96.425781 11.542969 C 95.839844 11.289062 95.230469 11.046875 94.617188 10.824219 L 94.742188 10.480469 C 95.363281 10.707031 95.980469 10.953125 96.574219 11.210938 Z M 71.871094 11.472656 L 71.703125 11.152344 C 72.277344 10.851562 72.878906 10.574219 73.496094 10.324219 L 73.632812 10.660156 C 73.027344 10.90625 72.433594 11.179688 71.871094 11.472656 Z M 92.765625 10.214844 C 92.148438 10.03125 91.511719 9.867188 90.878906 9.71875 L 90.960938 9.367188 C 91.601562 9.515625 92.242188 9.683594 92.867188 9.867188 Z M 75.464844 10.007812 L 75.355469 9.664062 C 75.972656 9.472656 76.617188 9.304688 77.265625 9.160156 L 77.34375 9.515625 C 76.707031 9.65625 76.074219 9.820312 75.464844 10.007812 Z M 88.964844 9.335938 C 88.328125 9.226562 87.675781 9.136719 87.035156 9.066406 L 87.074219 8.703125 C 87.722656 8.777344 88.378906 8.867188 89.027344 8.980469 Z M 79.261719 9.164062 L 79.207031 8.804688 C 79.847656 8.714844 80.507812 8.640625 81.167969 8.589844 L 81.195312 8.953125 C 80.542969 9 79.890625 9.074219 79.261719 9.164062 Z M 85.089844 8.90625 C 84.441406 8.875 83.785156 8.863281 83.144531 8.867188 L 83.140625 8.507812 C 83.789062 8.5 84.453125 8.511719 85.109375 8.546875 Z M 85.089844 8.90625 "/>
<path style=" stroke:none;fill-rule:nonzero;fill:rgb(37.647059%,58.431373%,67.058824%);fill-opacity:1;" d="M 106.339844 32.449219 L 106.015625 32.285156 C 106.167969 31.996094 106.308594 31.703125 106.441406 31.414062 L 106.773438 31.5625 C 106.636719 31.859375 106.492188 32.15625 106.339844 32.449219 Z M 106.339844 32.449219 "/>
<path style=" stroke:none;fill-rule:nonzero;fill:rgb(80%,8.235294%,29.019608%);fill-opacity:1;" d="M 103.1875 34.304688 L 101.167969 37.773438 C 101.167969 37.773438 104.089844 35.441406 104.160156 35.386719 C 104.230469 35.332031 106.828125 31.5625 106.828125 31.5625 L 107.984375 31.234375 L 106.148438 30.742188 Z M 103.1875 34.304688 "/>
<path style=" stroke:none;fill-rule:nonzero;fill:rgb(96.862745%,34.901961%,49.803922%);fill-opacity:1;" d="M 106.148438 30.742188 L 104.847656 29.507812 L 101.167969 37.773438 Z M 106.148438 30.742188 "/>
<path style=" stroke:none;fill-rule:nonzero;fill:rgb(96.862745%,34.901961%,49.803922%);fill-opacity:1;" d="M 108.554688 33.195312 L 106.828125 31.5625 L 101.167969 37.773438 Z M 108.554688 33.195312 "/>
</g>
</svg>
